<svg xmlns="http://www.w3.org/2000/svg" width="129.953" height="153.012" viewBox="0 0 129.953 153.012">
  <g id="Group_16" data-name="Group 16" transform="translate(-1014.448 -5471.754)">
    <g id="Group_10" data-name="Group 10">
      <path id="Path_13" data-name="Path 13" d="M1018.619,5619.427h-.493a.147.147,0,0,0-.118.054.192.192,0,0,0-.046.128v2.611c-.109.012-.259.024-.447.036s-.423.018-.7.018a1.589,1.589,0,0,1-.6-.113,1.243,1.243,0,0,1-.488-.369,1.859,1.859,0,0,1-.329-.652,3.392,3.392,0,0,1-.118-.961v-1.222a3.324,3.324,0,0,1,.132-1.015,1.72,1.72,0,0,1,.356-.647,1.208,1.208,0,0,1,.516-.337,1.94,1.94,0,0,1,.611-.1c.2,0,.37,0,.525,0l.434.01c.133,0,.263.009.387.018s.255.02.388.032h.037c.079,0,.119-.031.119-.092v-.456a.107.107,0,0,0-.046-.1.272.272,0,0,0-.11-.037q-.264-.045-.68-.087c-.276-.027-.628-.041-1.054-.041a3.028,3.028,0,0,0-.876.133,1.943,1.943,0,0,0-.785.461,2.424,2.424,0,0,0-.566.876,3.742,3.742,0,0,0-.219,1.378v1.223a3.694,3.694,0,0,0,.21,1.328,2.49,2.49,0,0,0,.543.876,2.018,2.018,0,0,0,.758.484,2.519,2.519,0,0,0,.853.151q.648,0,1.063-.042c.277-.027.528-.06.753-.1a.182.182,0,0,0,.165-.2v-3.072a.183.183,0,0,0-.051-.128A.16.16,0,0,0,1018.619,5619.427Z" fill="#fff"/>
      <path id="Path_14" data-name="Path 14" d="M1023.481,5618.454a1.661,1.661,0,0,0-.624-.428,2.317,2.317,0,0,0-.874-.151,1.921,1.921,0,0,0-1.5.575,2.242,2.242,0,0,0-.519,1.561v.821a2.725,2.725,0,0,0,.178,1.059,1.827,1.827,0,0,0,.465.671,1.694,1.694,0,0,0,.662.356,2.835,2.835,0,0,0,.767.1,8.279,8.279,0,0,0,.853-.041q.389-.042.781-.114a.218.218,0,0,0,.146-.069.235.235,0,0,0,.036-.141v-.311a.106.106,0,0,0-.046-.1.189.189,0,0,0-.1-.027h-.046q-.32.045-.771.073c-.3.018-.586.027-.853.027a1.241,1.241,0,0,1-.949-.338,1.649,1.649,0,0,1-.32-1.15v-.128h3.049c.115,0,.173-.066.173-.2v-.493a2.874,2.874,0,0,0-.127-.881A1.837,1.837,0,0,0,1023.481,5618.454Zm-.3,1.639h-2.419v-.082a1.58,1.58,0,0,1,.315-1.086,1.166,1.166,0,0,1,.908-.347,1.151,1.151,0,0,1,.9.328,1.642,1.642,0,0,1,.3,1.105Z" fill="#fff"/>
      <path id="Path_15" data-name="Path 15" d="M1027.345,5617.875a2.4,2.4,0,0,0-.739.106,4.1,4.1,0,0,0-.712.319v-.176a.189.189,0,0,0-.051-.13.157.157,0,0,0-.123-.055h-.456a.157.157,0,0,0-.123.055.181.181,0,0,0-.051.128v4.654a.18.18,0,0,0,.051.128.157.157,0,0,0,.123.055h.447a.188.188,0,0,0,.183-.182v-3.844a4.924,4.924,0,0,1,.629-.255,1.942,1.942,0,0,1,.6-.1,1.535,1.535,0,0,1,.447.059.679.679,0,0,1,.315.2.849.849,0,0,1,.182.369,2.34,2.34,0,0,1,.06.578v3a.189.189,0,0,0,.182.182h.438a.188.188,0,0,0,.183-.183v-3a2.261,2.261,0,0,0-.379-1.406A1.427,1.427,0,0,0,1027.345,5617.875Z" fill="#fff"/>
      <path id="Path_16" data-name="Path 16" d="M1033.53,5618.454a1.661,1.661,0,0,0-.624-.428,2.313,2.313,0,0,0-.874-.151,1.921,1.921,0,0,0-1.5.575,2.242,2.242,0,0,0-.519,1.561v.821a2.724,2.724,0,0,0,.178,1.059,1.817,1.817,0,0,0,.466.671,1.683,1.683,0,0,0,.661.356,2.835,2.835,0,0,0,.767.1,8.282,8.282,0,0,0,.853-.041q.388-.042.781-.114a.218.218,0,0,0,.146-.069.236.236,0,0,0,.036-.141v-.311a.107.107,0,0,0-.045-.1.2.2,0,0,0-.1-.027h-.045q-.32.045-.772.073t-.853.027a1.242,1.242,0,0,1-.949-.338,1.654,1.654,0,0,1-.32-1.15v-.128h3.049c.115,0,.173-.066.173-.2v-.493a2.87,2.87,0,0,0-.127-.881A1.837,1.837,0,0,0,1033.53,5618.454Zm-.3,1.639h-2.419v-.082a1.58,1.58,0,0,1,.315-1.086,1.165,1.165,0,0,1,.908-.347,1.15,1.15,0,0,1,.9.328,1.642,1.642,0,0,1,.3,1.105Z" fill="#fff"/>
      <path id="Path_17" data-name="Path 17" d="M1037.2,5617.875a2.022,2.022,0,0,0-.625.1,2.529,2.529,0,0,0-.662.342v-.195a.188.188,0,0,0-.05-.13.157.157,0,0,0-.123-.055h-.429a.158.158,0,0,0-.123.055.18.18,0,0,0-.051.128v4.654a.18.18,0,0,0,.051.128.158.158,0,0,0,.123.055h.447a.188.188,0,0,0,.183-.182v-3.817a2.787,2.787,0,0,1,.643-.3,2.209,2.209,0,0,1,.616-.086c.128,0,.192-.053.192-.157v-.38Q1037.394,5617.875,1037.2,5617.875Z" fill="#fff"/>
      <path id="Path_18" data-name="Path 18" d="M1039.731,5617.875a7.309,7.309,0,0,0-.8.037c-.222.024-.428.051-.616.082q-.192.027-.192.173v.319a.125.125,0,0,0,.05.119.228.228,0,0,0,.114.027h.046c.183-.018.386-.034.612-.05s.486-.022.785-.022a1.026,1.026,0,0,1,.757.228,1.153,1.153,0,0,1,.219.8v.365h-.675a4.943,4.943,0,0,0-1.032.091,1.821,1.821,0,0,0-.68.279,1.063,1.063,0,0,0-.374.465,1.689,1.689,0,0,0-.114.644v.109a1.791,1.791,0,0,0,.123.712,1.212,1.212,0,0,0,.329.456,1.158,1.158,0,0,0,.474.242,2.263,2.263,0,0,0,.562.069,2.1,2.1,0,0,0,.73-.128,4.319,4.319,0,0,0,.675-.319v.2a.188.188,0,0,0,.183.183h.42a.186.186,0,0,0,.182-.183v-3.185a1.8,1.8,0,0,0-.415-1.26A1.77,1.77,0,0,0,1039.731,5617.875Zm.976,4.125a3.265,3.265,0,0,1-.621.274,2.027,2.027,0,0,1-.611.092.994.994,0,0,1-.621-.169.8.8,0,0,1-.219-.662v-.109a1.2,1.2,0,0,1,.064-.416.577.577,0,0,1,.219-.274,1.156,1.156,0,0,1,.429-.155,3.924,3.924,0,0,1,.685-.05h.675Z" fill="#fff"/>
      <path id="Path_19" data-name="Path 19" d="M1043.482,5616.1h-.475a.151.151,0,0,0-.118.05.177.177,0,0,0-.046.124v6.507a.189.189,0,0,0,.046.128.143.143,0,0,0,.118.055h.475a.145.145,0,0,0,.118-.055.189.189,0,0,0,.046-.128v-6.507a.177.177,0,0,0-.046-.124A.152.152,0,0,0,1043.482,5616.1Z" fill="#fff"/>
      <path id="Path_20" data-name="Path 20" d="M1051.048,5616.168l-.365-.023c-.146-.009-.3-.015-.465-.018l-.5-.009c-.167,0-.318-.005-.452-.005a2.285,2.285,0,0,0-1.455.393,1.581,1.581,0,0,0-.489,1.305v3.514a1.577,1.577,0,0,0,.489,1.3,2.282,2.282,0,0,0,1.455.393h.457q.255,0,.506-.009c.168-.006.324-.011.47-.014a3.1,3.1,0,0,0,.347-.023.1.1,0,0,0,.069-.045.157.157,0,0,0,.022-.083v-.465c0-.073-.033-.11-.1-.11h-1.761a2.711,2.711,0,0,1-.585-.05.712.712,0,0,1-.337-.165.568.568,0,0,1-.16-.293,2.042,2.042,0,0,1-.041-.444v-1.54h2.8a.174.174,0,0,0,.128-.054.17.17,0,0,0,.054-.126v-.342a.173.173,0,0,0-.054-.126.18.18,0,0,0-.128-.054h-2.8v-1.269a2.045,2.045,0,0,1,.041-.438.568.568,0,0,1,.16-.3.7.7,0,0,1,.337-.164,2.738,2.738,0,0,1,.585-.05h1.761c.067,0,.1-.037.1-.11v-.456a.153.153,0,0,0-.022-.082A.1.1,0,0,0,1051.048,5616.168Z" fill="#fff"/>
      <path id="Path_21" data-name="Path 21" d="M1054.517,5617.875a2.4,2.4,0,0,0-.74.106,4.172,4.172,0,0,0-.712.319v-.176a.188.188,0,0,0-.05-.13.157.157,0,0,0-.123-.055h-.456a.161.161,0,0,0-.124.055.184.184,0,0,0-.05.128v4.654a.183.183,0,0,0,.05.128.161.161,0,0,0,.124.055h.447a.175.175,0,0,0,.128-.055.174.174,0,0,0,.054-.127v-3.844a4.937,4.937,0,0,1,.63-.255,1.942,1.942,0,0,1,.6-.1,1.535,1.535,0,0,1,.447.059.681.681,0,0,1,.315.2.851.851,0,0,1,.182.369,2.34,2.34,0,0,1,.06.578v3a.186.186,0,0,0,.182.182h.438a.188.188,0,0,0,.183-.183v-3a2.267,2.267,0,0,0-.379-1.406A1.428,1.428,0,0,0,1054.517,5617.875Z" fill="#fff"/>
      <path id="Path_22" data-name="Path 22" d="M1059.637,5622.366h-.511a.575.575,0,0,1-.384-.1.685.685,0,0,1-.109-.474v-3.178h.986a.174.174,0,0,0,.127-.054.176.176,0,0,0,.055-.128v-.31a.188.188,0,0,0-.182-.183h-.986v-1a.154.154,0,0,0-.041-.114.13.13,0,0,0-.1-.041h-.027l-.475.073a.17.17,0,0,0-.164.182v.9h-.886c-.115,0-.173.055-.173.164v.247c0,.1.058.152.173.164l.886.1v3.186a2.033,2.033,0,0,0,.077.611.853.853,0,0,0,.228.374.82.82,0,0,0,.384.188,2.7,2.7,0,0,0,.552.05c.085,0,.183,0,.292-.014s.21-.02.3-.032c.11-.018.165-.071.165-.157v-.325Q1059.829,5622.366,1059.637,5622.366Z" fill="#fff"/>
      <path id="Path_23" data-name="Path 23" d="M1064.033,5618.454a1.661,1.661,0,0,0-.624-.428,2.313,2.313,0,0,0-.874-.151,1.921,1.921,0,0,0-1.5.575,2.243,2.243,0,0,0-.519,1.561v.821a2.724,2.724,0,0,0,.178,1.059,1.817,1.817,0,0,0,.466.671,1.683,1.683,0,0,0,.661.356,2.835,2.835,0,0,0,.767.1,8.279,8.279,0,0,0,.853-.041q.389-.042.781-.114a.218.218,0,0,0,.146-.069.235.235,0,0,0,.036-.141v-.311a.107.107,0,0,0-.045-.1.2.2,0,0,0-.1-.027h-.045q-.32.045-.772.073t-.853.027a1.242,1.242,0,0,1-.949-.338,1.654,1.654,0,0,1-.32-1.15v-.128h3.049c.115,0,.173-.066.173-.2v-.493a2.874,2.874,0,0,0-.127-.881A1.837,1.837,0,0,0,1064.033,5618.454Zm-.3,1.639h-2.419v-.082a1.58,1.58,0,0,1,.315-1.086,1.165,1.165,0,0,1,.908-.347,1.15,1.15,0,0,1,.9.328,1.642,1.642,0,0,1,.3,1.105Z" fill="#fff"/>
      <path id="Path_24" data-name="Path 24" d="M1067.7,5617.875a2.023,2.023,0,0,0-.625.1,2.533,2.533,0,0,0-.662.342v-.195a.188.188,0,0,0-.05-.13.158.158,0,0,0-.123-.055h-.429a.157.157,0,0,0-.123.055.18.18,0,0,0-.05.128v4.654a.179.179,0,0,0,.05.128.157.157,0,0,0,.123.055h.447a.188.188,0,0,0,.183-.182v-3.817a2.807,2.807,0,0,1,.643-.3,2.209,2.209,0,0,1,.616-.086c.128,0,.192-.053.192-.157v-.38Q1067.9,5617.875,1067.7,5617.875Z" fill="#fff"/>
      <path id="Path_25" data-name="Path 25" d="M1071.237,5622.366h-.511a.574.574,0,0,1-.383-.1.684.684,0,0,1-.11-.474v-3.178h.986a.175.175,0,0,0,.128-.054.18.18,0,0,0,.055-.128v-.31a.176.176,0,0,0-.055-.128.173.173,0,0,0-.128-.055h-.986v-1a.154.154,0,0,0-.04-.114.13.13,0,0,0-.1-.041h-.028l-.474.073a.171.171,0,0,0-.165.182v.9h-.885c-.116,0-.174.055-.174.164v.247c0,.1.058.152.174.164l.885.1v3.186a2,2,0,0,0,.078.611.843.843,0,0,0,.228.374.817.817,0,0,0,.383.188,2.715,2.715,0,0,0,.552.05c.086,0,.183,0,.293-.014s.209-.02.3-.032c.109-.018.164-.071.164-.157v-.325Q1071.429,5622.366,1071.237,5622.366Z" fill="#fff"/>
      <path id="Path_26" data-name="Path 26" d="M1073.994,5617.875a7.322,7.322,0,0,0-.8.037c-.222.024-.427.051-.616.082q-.192.027-.192.173v.319c0,.061.017.1.051.119a.223.223,0,0,0,.114.027h.045c.183-.018.387-.034.612-.05s.487-.022.785-.022a1.024,1.024,0,0,1,.757.228,1.148,1.148,0,0,1,.22.8v.365h-.676a4.931,4.931,0,0,0-1.031.091,1.813,1.813,0,0,0-.68.279,1.059,1.059,0,0,0-.375.465,1.691,1.691,0,0,0-.114.644v.109a1.788,1.788,0,0,0,.124.712,1.211,1.211,0,0,0,.328.456,1.157,1.157,0,0,0,.475.242,2.25,2.25,0,0,0,.561.069,2.1,2.1,0,0,0,.73-.128,4.284,4.284,0,0,0,.676-.319v.2a.188.188,0,0,0,.182.183h.42a.188.188,0,0,0,.183-.183v-3.185a1.81,1.81,0,0,0-.415-1.26A1.771,1.771,0,0,0,1073.994,5617.875Zm.977,4.125a3.289,3.289,0,0,1-.621.274,2.036,2.036,0,0,1-.612.092.992.992,0,0,1-.62-.169.8.8,0,0,1-.219-.662v-.109a1.177,1.177,0,0,1,.064-.416.565.565,0,0,1,.219-.274,1.142,1.142,0,0,1,.429-.155,3.9,3.9,0,0,1,.684-.05h.676Z" fill="#fff"/>
      <path id="Path_27" data-name="Path 27" d="M1077.736,5617.939h-.438a.187.187,0,0,0-.182.183v4.654a.187.187,0,0,0,.182.183h.438a.188.188,0,0,0,.183-.183v-4.654a.176.176,0,0,0-.055-.128A.174.174,0,0,0,1077.736,5617.939Z" fill="#fff"/>
      <path id="Path_28" data-name="Path 28" d="M1077.754,5616.04h-.465a.178.178,0,0,0-.128.055.173.173,0,0,0-.055.128v.73a.175.175,0,0,0,.055.128.178.178,0,0,0,.128.055h.465a.188.188,0,0,0,.183-.183v-.73a.173.173,0,0,0-.055-.128A.176.176,0,0,0,1077.754,5616.04Z" fill="#fff"/>
      <path id="Path_29" data-name="Path 29" d="M1081.524,5617.875a2.4,2.4,0,0,0-.739.106,4.135,4.135,0,0,0-.712.319v-.176a.189.189,0,0,0-.051-.13.157.157,0,0,0-.123-.055h-.456a.158.158,0,0,0-.123.055.179.179,0,0,0-.05.128v4.654a.179.179,0,0,0,.05.128.158.158,0,0,0,.123.055h.447a.188.188,0,0,0,.183-.182v-3.844a4.977,4.977,0,0,1,.629-.255,1.941,1.941,0,0,1,.6-.1,1.534,1.534,0,0,1,.447.059.681.681,0,0,1,.315.2.862.862,0,0,1,.183.369,2.4,2.4,0,0,1,.059.578v3a.189.189,0,0,0,.182.182h.438a.188.188,0,0,0,.183-.183v-3a2.262,2.262,0,0,0-.379-1.406A1.427,1.427,0,0,0,1081.524,5617.875Z" fill="#fff"/>
      <path id="Path_30" data-name="Path 30" d="M1089.966,5618.226a1.137,1.137,0,0,0-.47-.278,1.956,1.956,0,0,0-.579-.082,3.1,3.1,0,0,0-.744.1,4.008,4.008,0,0,0-.771.278.987.987,0,0,0-.4-.287,1.414,1.414,0,0,0-.516-.087,2,2,0,0,0-.721.128,3.325,3.325,0,0,0-.611.3v-.173a.18.18,0,0,0-.051-.128.157.157,0,0,0-.123-.055h-.456a.161.161,0,0,0-.124.055.184.184,0,0,0-.05.128v4.654a.206.206,0,0,0,.041.128.135.135,0,0,0,.115.055h.483a.147.147,0,0,0,.119-.055.193.193,0,0,0,.046-.128v-3.851a5.463,5.463,0,0,1,.579-.251,1.571,1.571,0,0,1,.534-.1,1.171,1.171,0,0,1,.306.036.451.451,0,0,1,.223.142.653.653,0,0,1,.133.292,2.38,2.38,0,0,1,.041.488v3.249a.2.2,0,0,0,.041.128.132.132,0,0,0,.114.055h.484a.145.145,0,0,0,.118-.055.189.189,0,0,0,.046-.128v-3.249a2.715,2.715,0,0,0-.082-.712,5.116,5.116,0,0,1,.543-.173,2.044,2.044,0,0,1,.525-.073,1.178,1.178,0,0,1,.328.045.608.608,0,0,1,.265.156.738.738,0,0,1,.173.3,1.5,1.5,0,0,1,.064.474v3.231a.188.188,0,0,0,.183.183h.438a.188.188,0,0,0,.183-.183v-3.231a2.421,2.421,0,0,0-.114-.8A1.344,1.344,0,0,0,1089.966,5618.226Z" fill="#fff"/>
      <path id="Path_31" data-name="Path 31" d="M1094.992,5618.454a1.661,1.661,0,0,0-.624-.428,2.313,2.313,0,0,0-.874-.151,1.919,1.919,0,0,0-1.5.575,2.243,2.243,0,0,0-.52,1.561v.821a2.742,2.742,0,0,0,.178,1.059,1.817,1.817,0,0,0,.466.671,1.687,1.687,0,0,0,.662.356,2.828,2.828,0,0,0,.766.1,8.3,8.3,0,0,0,.854-.041c.258-.028.519-.066.78-.114a.215.215,0,0,0,.146-.069.234.234,0,0,0,.037-.141v-.311a.108.108,0,0,0-.046-.1.191.191,0,0,0-.1-.027h-.046q-.319.045-.771.073t-.854.027a1.244,1.244,0,0,1-.949-.338,1.654,1.654,0,0,1-.319-1.15v-.128h3.049c.115,0,.172-.066.172-.2v-.493a2.874,2.874,0,0,0-.127-.881A1.835,1.835,0,0,0,1094.992,5618.454Zm-.3,1.639h-2.419v-.082a1.58,1.58,0,0,1,.315-1.086,1.164,1.164,0,0,1,.908-.347,1.153,1.153,0,0,1,.9.328,1.648,1.648,0,0,1,.3,1.105Z" fill="#fff"/>
      <path id="Path_32" data-name="Path 32" d="M1098.857,5617.875a2.4,2.4,0,0,0-.74.106,4.167,4.167,0,0,0-.712.319v-.176a.193.193,0,0,0-.05-.13.159.159,0,0,0-.123-.055h-.457a.161.161,0,0,0-.123.055.184.184,0,0,0-.05.128v4.654a.183.183,0,0,0,.05.128.161.161,0,0,0,.123.055h.448a.175.175,0,0,0,.128-.055.174.174,0,0,0,.054-.127v-3.844a4.93,4.93,0,0,1,.63-.255,1.939,1.939,0,0,1,.6-.1,1.537,1.537,0,0,1,.448.059.691.691,0,0,1,.315.2.862.862,0,0,1,.182.369,2.352,2.352,0,0,1,.059.578v3a.188.188,0,0,0,.183.182h.438a.188.188,0,0,0,.183-.183v-3a2.268,2.268,0,0,0-.379-1.406A1.428,1.428,0,0,0,1098.857,5617.875Z" fill="#fff"/>
      <path id="Path_33" data-name="Path 33" d="M1103.977,5622.366h-.511a.577.577,0,0,1-.384-.1.69.69,0,0,1-.109-.474v-3.178h.986a.174.174,0,0,0,.127-.054.176.176,0,0,0,.055-.128v-.31a.188.188,0,0,0-.182-.183h-.986v-1a.154.154,0,0,0-.041-.114.13.13,0,0,0-.1-.041h-.027l-.475.073a.17.17,0,0,0-.164.182v.9h-.886c-.115,0-.173.055-.173.164v.247c0,.1.058.152.173.164l.886.1v3.186a2.037,2.037,0,0,0,.077.611.845.845,0,0,0,.229.374.812.812,0,0,0,.383.188,2.7,2.7,0,0,0,.552.05c.085,0,.183,0,.292-.014s.21-.02.3-.032c.11-.018.164-.071.164-.157v-.325C1104.168,5622.409,1104.1,5622.366,1103.977,5622.366Z" fill="#fff"/>
      <path id="Path_34" data-name="Path 34" d="M1110.466,5616.8a.906.906,0,0,0-.16-.342.858.858,0,0,0-.232-.21.81.81,0,0,0-.265-.1,1.36,1.36,0,0,0-.265-.028,1.239,1.239,0,0,0-.269.032.878.878,0,0,0-.5.32.925.925,0,0,0-.16.342l-1.688,5.942a.156.156,0,0,0-.009.064c0,.1.051.146.155.146h.538a.151.151,0,0,0,.1-.041.241.241,0,0,0,.064-.1l.584-2.1h2.364l.593,2.1a.285.285,0,0,0,.055.1.129.129,0,0,0,.1.041h.539c.1,0,.155-.049.155-.146a.159.159,0,0,0-.009-.064Zm-1.935,3.2.831-3c.03-.11.091-.165.182-.165s.143.055.174.165l.83,3Z" fill="#fff"/>
      <path id="Path_35" data-name="Path 35" d="M1116.627,5617.939h-.447a.174.174,0,0,0-.128.055.172.172,0,0,0-.054.127v3.844a5.136,5.136,0,0,1-.63.255,1.985,1.985,0,0,1-.6.1,1.534,1.534,0,0,1-.451-.059.7.7,0,0,1-.311-.2.849.849,0,0,1-.182-.369,2.346,2.346,0,0,1-.06-.578v-3a.172.172,0,0,0-.054-.127.174.174,0,0,0-.128-.055h-.438a.188.188,0,0,0-.183.183v3a2.263,2.263,0,0,0,.379,1.406,1.428,1.428,0,0,0,1.209.493,2.406,2.406,0,0,0,.74-.107,4.1,4.1,0,0,0,.712-.319v.177a.183.183,0,0,0,.05.129.159.159,0,0,0,.123.056h.456a.157.157,0,0,0,.123-.055.179.179,0,0,0,.051-.128v-4.654a.18.18,0,0,0-.051-.128A.157.157,0,0,0,1116.627,5617.939Z" fill="#fff"/>
      <path id="Path_36" data-name="Path 36" d="M1120.515,5622.366H1120a.574.574,0,0,1-.383-.1.684.684,0,0,1-.11-.474v-3.178h.986a.175.175,0,0,0,.128-.054.18.18,0,0,0,.055-.128v-.31a.176.176,0,0,0-.055-.128.172.172,0,0,0-.128-.055h-.986v-1a.15.15,0,0,0-.041-.114.126.126,0,0,0-.095-.041h-.028l-.474.073a.171.171,0,0,0-.165.182v.9h-.885c-.116,0-.174.055-.174.164v.247c0,.1.058.152.174.164l.885.1v3.186a2,2,0,0,0,.078.611.843.843,0,0,0,.228.374.811.811,0,0,0,.383.188,2.716,2.716,0,0,0,.552.05c.086,0,.183,0,.293-.014s.209-.02.3-.032c.109-.018.164-.071.164-.157v-.325Q1120.707,5622.366,1120.515,5622.366Z" fill="#fff"/>
      <path id="Path_37" data-name="Path 37" d="M1124.942,5618.322a1.374,1.374,0,0,0-.52-.338,1.968,1.968,0,0,0-.666-.109,3.945,3.945,0,0,0-.68.069,3.044,3.044,0,0,0-.717.214v-1.88a.184.184,0,0,0-.05-.128.16.16,0,0,0-.123-.055h-.457a.157.157,0,0,0-.123.055.18.18,0,0,0-.05.128v6.5a.179.179,0,0,0,.05.128.158.158,0,0,0,.123.055h.447a.188.188,0,0,0,.183-.183v-3.943a2.6,2.6,0,0,1,.324-.114c.119-.033.236-.061.351-.082s.224-.036.324-.045.188-.014.26-.014a.983.983,0,0,1,.712.255,1.3,1.3,0,0,1,.265.941v3a.175.175,0,0,0,.055.128.172.172,0,0,0,.128.055h.438a.186.186,0,0,0,.182-.183v-3a2.776,2.776,0,0,0-.118-.863A1.54,1.54,0,0,0,1124.942,5618.322Z" fill="#fff"/>
      <path id="Path_38" data-name="Path 38" d="M1130.026,5618.486a1.7,1.7,0,0,0-.639-.451,2.277,2.277,0,0,0-.885-.16,2.243,2.243,0,0,0-.881.16,1.706,1.706,0,0,0-.634.451,1.918,1.918,0,0,0-.384.7,3.074,3.074,0,0,0-.127.913v.694a3.063,3.063,0,0,0,.127.912,1.91,1.91,0,0,0,.384.7,1.7,1.7,0,0,0,.634.452,2.252,2.252,0,0,0,.881.16,2.286,2.286,0,0,0,.885-.16,1.693,1.693,0,0,0,.639-.452,1.924,1.924,0,0,0,.383-.7,3.035,3.035,0,0,0,.128-.912v-.694a3.046,3.046,0,0,0-.128-.913A1.932,1.932,0,0,0,1130.026,5618.486Zm-.292,2.31a1.862,1.862,0,0,1-.3,1.118,1.078,1.078,0,0,1-.935.406,1.062,1.062,0,0,1-.936-.411,1.909,1.909,0,0,1-.287-1.113v-.694a1.883,1.883,0,0,1,.292-1.118,1.277,1.277,0,0,1,1.871,0,1.891,1.891,0,0,1,.292,1.114Z" fill="#fff"/>
      <path id="Path_39" data-name="Path 39" d="M1133.677,5617.875a2.017,2.017,0,0,0-.625.1,2.516,2.516,0,0,0-.662.342v-.195a.192.192,0,0,0-.05-.13.16.16,0,0,0-.123-.055h-.43a.161.161,0,0,0-.123.055.184.184,0,0,0-.05.128v4.654a.183.183,0,0,0,.05.128.161.161,0,0,0,.123.055h.448a.176.176,0,0,0,.128-.055.174.174,0,0,0,.054-.127v-3.817a2.794,2.794,0,0,1,.644-.3,2.2,2.2,0,0,1,.616-.086c.128,0,.192-.053.192-.157v-.38Q1133.869,5617.875,1133.677,5617.875Z" fill="#fff"/>
      <path id="Path_40" data-name="Path 40" d="M1135.457,5617.939h-.438a.188.188,0,0,0-.183.183v4.654a.188.188,0,0,0,.183.183h.438a.187.187,0,0,0,.182-.183v-4.654a.187.187,0,0,0-.182-.183Z" fill="#fff"/>
      <path id="Path_41" data-name="Path 41" d="M1135.475,5616.04h-.466a.176.176,0,0,0-.127.055.173.173,0,0,0-.055.128v.73a.188.188,0,0,0,.182.183h.466a.186.186,0,0,0,.182-.183v-.73a.176.176,0,0,0-.054-.128A.178.178,0,0,0,1135.475,5616.04Z" fill="#fff"/>
      <path id="Path_42" data-name="Path 42" d="M1139.463,5622.366h-.511a.574.574,0,0,1-.383-.1.684.684,0,0,1-.11-.474v-3.178h.986a.176.176,0,0,0,.128-.054.18.18,0,0,0,.055-.128v-.31a.176.176,0,0,0-.055-.128.174.174,0,0,0-.128-.055h-.986v-1a.15.15,0,0,0-.041-.114.127.127,0,0,0-.1-.041h-.027l-.475.073a.171.171,0,0,0-.164.182v.9h-.885c-.116,0-.174.055-.174.164v.247c0,.1.058.152.174.164l.885.1v3.186a2,2,0,0,0,.078.611.844.844,0,0,0,.228.374.811.811,0,0,0,.383.188,2.709,2.709,0,0,0,.552.05c.086,0,.183,0,.293-.014s.209-.02.3-.032c.109-.018.164-.071.164-.157v-.325Q1139.655,5622.366,1139.463,5622.366Z" fill="#fff"/>
      <path id="Path_43" data-name="Path 43" d="M1144.255,5617.939h-.511a.158.158,0,0,0-.109.041.211.211,0,0,0-.064.1l-1.114,4.171h-.146a.16.16,0,0,1-.091-.032.307.307,0,0,1-.082-.169l-1.077-3.961a.278.278,0,0,0-.06-.1.125.125,0,0,0-.095-.045h-.5c-.11,0-.165.052-.165.155a.156.156,0,0,0,.009.064l1.214,4.171a1.734,1.734,0,0,0,.137.338.6.6,0,0,0,.16.191.455.455,0,0,0,.182.083,1.051,1.051,0,0,0,.2.018h.127l-.091.374a1.694,1.694,0,0,1-.132.388.748.748,0,0,1-.183.237.573.573,0,0,1-.251.119,1.6,1.6,0,0,1-.337.032c-.1,0-.239-.006-.406-.018s-.3-.025-.407-.037h-.027c-.116,0-.173.049-.173.146v.338a.1.1,0,0,0,.054.1.57.57,0,0,0,.137.046,2.779,2.779,0,0,0,.361.059,3.734,3.734,0,0,0,.406.023,2.546,2.546,0,0,0,.662-.073,1.2,1.2,0,0,0,.461-.233,1.224,1.224,0,0,0,.314-.415,4.026,4.026,0,0,0,.233-.63l1.506-5.257a.158.158,0,0,0,.009-.064C1144.4,5617.991,1144.353,5617.939,1144.255,5617.939Z" fill="#fff"/>
      <path id="Path_44" data-name="Path 44" d="M1029.584,5611.268h-.5a.332.332,0,0,0-.213.078.249.249,0,0,0-.1.206v.7a.244.244,0,0,0,.1.186.321.321,0,0,0,.213.084h.5a.3.3,0,0,0,.206-.084.25.25,0,0,0,.09-.186v-.7a.256.256,0,0,0-.09-.206A.305.305,0,0,0,1029.584,5611.268Z" fill="#fff"/>
      <path id="Path_45" data-name="Path 45" d="M1027.472,5612.517a.293.293,0,0,0,.206-.084.249.249,0,0,0,.09-.186v-.7a.264.264,0,0,0-.083-.206.3.3,0,0,0-.213-.078h-.5a.3.3,0,0,0-.212.078.264.264,0,0,0-.084.206v.7a.257.257,0,0,0,.084.186.286.286,0,0,0,.212.084Z" fill="#fff"/>
      <path id="Path_46" data-name="Path 46" d="M1033.6,5602.667h.547a.3.3,0,0,0,.21-.077.254.254,0,0,0,.083-.193v-.7a.271.271,0,0,0-.083-.206.28.28,0,0,0-.2-.077h-.56a.3.3,0,0,0-.2.077.262.262,0,0,0-.089.206v.7a.254.254,0,0,0,.083.193A.3.3,0,0,0,1033.6,5602.667Z" fill="#fff"/>
      <path id="Path_47" data-name="Path 47" d="M1036.164,5609.762c.008-.129.017-.271.025-.425s.015-.316.02-.483.006-.335.006-.5v-3.844a.253.253,0,0,0-.039-.154.272.272,0,0,0-.167-.077,4.533,4.533,0,0,0-.863-.149c-.343-.029-.695-.045-1.055-.045a3.089,3.089,0,0,0-2.183.734,2.639,2.639,0,0,0-.792,2.035v.309a3.206,3.206,0,0,0,.161,1.094,2.139,2.139,0,0,0,.406.708h-1.674c-.077,0-.167,0-.271-.012a2.367,2.367,0,0,1-.3-.046,1.185,1.185,0,0,1-.27-.09.288.288,0,0,1-.161-.161v-3.54a.242.242,0,0,0-.245-.245h-.592a.237.237,0,0,0-.174.071.233.233,0,0,0-.071.174v3.373a.353.353,0,0,1-.1.264.58.58,0,0,1-.238.142,1.391,1.391,0,0,1-.3.058c-.1.008-.2.012-.283.012h-6.335a1.257,1.257,0,0,1-.657-.148q-.245-.147-.244-.663v-3.618a.33.33,0,0,0-.033-.161c-.021-.039-.075-.066-.161-.084s-.206-.049-.334-.07-.264-.041-.406-.058-.285-.03-.431-.039-.275-.013-.387-.013a5.3,5.3,0,0,0-1.345.161,2.937,2.937,0,0,0-1.056.5,2.278,2.278,0,0,0-.689.882,3.146,3.146,0,0,0-.244,1.3v.335a2.612,2.612,0,0,0,.643,1.9,2.464,2.464,0,0,0,1.842.657h.115a3.825,3.825,0,0,0,1-.123,1.213,1.213,0,0,0,.676-.4,1.17,1.17,0,0,0,.6.579,2.471,2.471,0,0,0,.972.168h6.322a4.36,4.36,0,0,0,.805-.084,1.71,1.71,0,0,0,.766-.341,1.548,1.548,0,0,0,.753.341,4.75,4.75,0,0,0,.857.084h3.8q.515,0,1.011-.007c.33,0,.676-.023,1.036-.058C1036.061,5609.989,1036.155,5609.908,1036.164,5609.762Zm-17.473-1.651a.552.552,0,0,1-.1.343.715.715,0,0,1-.27.213,1.244,1.244,0,0,1-.374.1,3.045,3.045,0,0,1-.4.026h-.245a1.435,1.435,0,0,1-1.184-.433,1.877,1.877,0,0,1-.348-1.208v-.271a2.02,2.02,0,0,1,.161-.859,1.371,1.371,0,0,1,.438-.543,1.669,1.669,0,0,1,.663-.278,4.28,4.28,0,0,1,.85-.078c.111,0,.232,0,.36.013s.279.022.451.039Zm16.442.84q-.27.025-.618.032c-.231,0-.446.006-.643.006a1.586,1.586,0,0,1-1.269-.47,2.022,2.022,0,0,1-.405-1.358v-.283a1.785,1.785,0,0,1,.457-1.327,1.84,1.84,0,0,1,1.345-.45c.224,0,.425,0,.606.013a5.092,5.092,0,0,1,.527.051Z" fill="#fff"/>
      <path id="Path_48" data-name="Path 48" d="M1044.352,5603.195h.5a.309.309,0,0,0,.206-.077.247.247,0,0,0,.091-.193v-.7a.267.267,0,0,0-.084-.206.306.306,0,0,0-.213-.077h-.5a.3.3,0,0,0-.212.077.267.267,0,0,0-.084.206v.7a.253.253,0,0,0,.084.193A.3.3,0,0,0,1044.352,5603.195Z" fill="#fff"/>
      <path id="Path_49" data-name="Path 49" d="M1046.464,5603.195h.5a.311.311,0,0,0,.206-.077.246.246,0,0,0,.09-.193v-.7a.259.259,0,0,0-.09-.206.311.311,0,0,0-.206-.077h-.5a.34.34,0,0,0-.213.077.252.252,0,0,0-.1.206v.7a.24.24,0,0,0,.1.193A.339.339,0,0,0,1046.464,5603.195Z" fill="#fff"/>
      <path id="Path_50" data-name="Path 50" d="M1052.786,5610.038c.154-.012.3-.025.425-.038a1.242,1.242,0,0,0,.3-.058.4.4,0,0,0,.206-.155.728.728,0,0,0,.077-.219c.017-.1.03-.218.039-.347s.015-.262.019-.4.007-.271.007-.4v-7.777a.248.248,0,0,0-.065-.174.216.216,0,0,0-.167-.071h-.631a.243.243,0,0,0-.245.245v7.854q0,.335-.1.4a1.041,1.041,0,0,1-.47.064h-1.133c-.078,0-.168,0-.271-.012a2.341,2.341,0,0,1-.3-.046,1.212,1.212,0,0,1-.271-.09.294.294,0,0,1-.161-.161v-8.008a.248.248,0,0,0-.064-.174.216.216,0,0,0-.167-.071h-.631a.243.243,0,0,0-.245.245v7.841a.356.356,0,0,1-.1.264.589.589,0,0,1-.239.142,1.392,1.392,0,0,1-.3.058c-.1.008-.2.012-.283.012h-.786q-.115,0-.27-.012a2.386,2.386,0,0,1-.3-.046,1.22,1.22,0,0,1-.27-.09.291.291,0,0,1-.161-.161v-3.54a.242.242,0,0,0-.245-.245h-.592a.24.24,0,0,0-.244.245v3.373a.357.357,0,0,1-.1.264.586.586,0,0,1-.238.142,1.4,1.4,0,0,1-.3.058c-.1.008-.2.012-.284.012h-4.455v-3.849a.248.248,0,0,0-.064-.174.2.2,0,0,0-.154-.071h-.631a.218.218,0,0,0-.168.071.247.247,0,0,0-.064.174v5.7a2.814,2.814,0,0,1-.065.675.668.668,0,0,1-.231.38.924.924,0,0,1-.438.168,5.236,5.236,0,0,1-.695.038H1037q-.219,0-.219.181v.553a.207.207,0,0,0,.039.136.318.318,0,0,0,.167.07,2.758,2.758,0,0,0,.342.039c.141.009.233.013.276.013a3.34,3.34,0,0,0,1.2-.18,1.405,1.405,0,0,0,.715-.631,1.8,1.8,0,0,0,.193-.606,5.239,5.239,0,0,0,.052-.759v-.824h4.313a4.359,4.359,0,0,0,.8-.084,1.709,1.709,0,0,0,.766-.341,1.539,1.539,0,0,0,.753.341,4.738,4.738,0,0,0,.856.084h.644a4.36,4.36,0,0,0,.805-.084,1.71,1.71,0,0,0,.766-.341,1.148,1.148,0,0,0,.341.212,2.261,2.261,0,0,0,.412.129,3.524,3.524,0,0,0,.431.064c.146.013.284.02.413.02h.759c.146,0,.3,0,.47-.007S1052.631,5610.051,1052.786,5610.038Z" fill="#fff"/>
      <path id="Path_51" data-name="Path 51" d="M1062.391,5602.693h.5a.309.309,0,0,0,.206-.077.247.247,0,0,0,.091-.194v-.695a.257.257,0,0,0-.091-.206.3.3,0,0,0-.206-.077h-.5a.33.33,0,0,0-.212.077.248.248,0,0,0-.1.206v.695a.239.239,0,0,0,.1.194A.335.335,0,0,0,1062.391,5602.693Z" fill="#fff"/>
      <path id="Path_52" data-name="Path 52" d="M1060.279,5602.693h.5a.313.313,0,0,0,.206-.077.246.246,0,0,0,.09-.194v-.695a.265.265,0,0,0-.084-.206.3.3,0,0,0-.212-.077h-.5a.3.3,0,0,0-.212.077.265.265,0,0,0-.084.206v.695a.254.254,0,0,0,.084.194A.3.3,0,0,0,1060.279,5602.693Z" fill="#fff"/>
      <path id="Path_53" data-name="Path 53" d="M1079.4,5609.575a2.947,2.947,0,0,0,.618-2.028v-.657a2.861,2.861,0,0,0-.656-2.034,2.55,2.55,0,0,0-1.945-.695,2.631,2.631,0,0,0-1.976.708,2.794,2.794,0,0,0-.689,2.034v1.236a1.545,1.545,0,0,1-.039.374.411.411,0,0,1-.148.238.914.914,0,0,1-.251.135,1.185,1.185,0,0,1-.283.065c-.095.008-.172.012-.232.012h-8.936a1.256,1.256,0,0,1-.656-.148q-.245-.147-.245-.663v-3.618a.343.343,0,0,0-.032-.161.229.229,0,0,0-.161-.084c-.1-.025-.206-.049-.335-.07s-.264-.041-.4-.058-.286-.03-.432-.039-.275-.013-.386-.013a5.3,5.3,0,0,0-1.346.161,2.939,2.939,0,0,0-1.055.5,2.27,2.27,0,0,0-.689.882,3.131,3.131,0,0,0-.245,1.3v.335a2.612,2.612,0,0,0,.644,1.9,2.462,2.462,0,0,0,1.841.657h.116a3.83,3.83,0,0,0,1-.123,1.213,1.213,0,0,0,.676-.4,1.167,1.167,0,0,0,.6.579,2.464,2.464,0,0,0,.972.168h8.871a3.419,3.419,0,0,0,.992-.136,1.145,1.145,0,0,0,.669-.482,1.889,1.889,0,0,0,.869.611,3.7,3.7,0,0,0,1.269.2A2.579,2.579,0,0,0,1079.4,5609.575Zm-16.52-1.464a.552.552,0,0,1-.1.343.7.7,0,0,1-.27.213,1.237,1.237,0,0,1-.373.1,3.069,3.069,0,0,1-.4.026h-.245a1.437,1.437,0,0,1-1.185-.433,1.883,1.883,0,0,1-.347-1.208v-.271a2.02,2.02,0,0,1,.16-.859,1.387,1.387,0,0,1,.438-.543,1.682,1.682,0,0,1,.663-.278,4.288,4.288,0,0,1,.85-.078c.112,0,.232,0,.361.013s.279.022.45.039Zm13.005.17a4.217,4.217,0,0,1-.051-.708v-.567a2.174,2.174,0,0,1,.366-1.358,1.454,1.454,0,0,1,1.217-.47,1.352,1.352,0,0,1,1.178.476,2.3,2.3,0,0,1,.342,1.352v.477a2.086,2.086,0,0,1-.348,1.358,1.507,1.507,0,0,1-1.2.406,2.154,2.154,0,0,1-.992-.2A1.06,1.06,0,0,1,1075.885,5608.281Z" fill="#fff"/>
      <path id="Path_54" data-name="Path 54" d="M1096.885,5609.787a.728.728,0,0,0,.077-.219,3.154,3.154,0,0,0,.039-.347c.009-.129.015-.262.019-.4s.007-.271.007-.4v-7.777a.248.248,0,0,0-.065-.174.215.215,0,0,0-.167-.071h-.631a.241.241,0,0,0-.244.245v7.854c0,.223-.033.356-.1.4a1.038,1.038,0,0,1-.47.064h-2.575a1.3,1.3,0,0,0,.354-.367,2.742,2.742,0,0,0,.277-.528,3.494,3.494,0,0,0,.18-.611,3.211,3.211,0,0,0,.065-.631v-.245a2.763,2.763,0,0,0-.213-1.133,2.017,2.017,0,0,0-.6-.779,2.529,2.529,0,0,0-.92-.444,4.547,4.547,0,0,0-1.165-.142,4.683,4.683,0,0,0-.773.065,5.928,5.928,0,0,0-.747.174,3.756,3.756,0,0,0-.663.27,2.66,2.66,0,0,0-.521.354.5.5,0,0,0-.219.335l-.013.373c0,.035,0,.073.006.116a.224.224,0,0,0,.032.1l1.211,3.09h-5.086a2.351,2.351,0,0,1-.367-.025.657.657,0,0,1-.271-.1.492.492,0,0,1-.167-.226,1.131,1.131,0,0,1-.058-.4v-7.558a.276.276,0,0,0-.064-.181.209.209,0,0,0-.167-.077h-.631a.228.228,0,0,0-.174.077.258.258,0,0,0-.071.181v7.8a2.436,2.436,0,0,0,.109.8,1.128,1.128,0,0,0,.329.5,1.221,1.221,0,0,0,.527.257,3.289,3.289,0,0,0,.722.071h11.3c.146,0,.3,0,.47-.007s.329-.013.483-.026.3-.025.425-.038a1.242,1.242,0,0,0,.3-.058A.4.4,0,0,0,1096.885,5609.787Zm-4.3-2.935a2.5,2.5,0,0,1-.38,1.377,1.646,1.646,0,0,1-1.049.747h-.953l-1.313-3.373a2.537,2.537,0,0,1,1-.412,5.334,5.334,0,0,1,.863-.09,2.129,2.129,0,0,1,1.339.38,1.46,1.46,0,0,1,.489,1.229Z" fill="#fff"/>
      <path id="Path_55" data-name="Path 55" d="M1099.46,5610.071h.631a.208.208,0,0,0,.168-.078.271.271,0,0,0,.064-.18v-9.167a.276.276,0,0,0-.064-.181.21.21,0,0,0-.168-.077h-.631a.225.225,0,0,0-.173.077.258.258,0,0,0-.071.181v9.167a.254.254,0,0,0,.071.18A.222.222,0,0,0,1099.46,5610.071Z" fill="#fff"/>
      <path id="Path_56" data-name="Path 56" d="M1108.988,5602.693h.5a.313.313,0,0,0,.206-.077.246.246,0,0,0,.09-.194v-.695a.257.257,0,0,0-.09-.206.309.309,0,0,0-.206-.077h-.5a.329.329,0,0,0-.212.077.247.247,0,0,0-.1.206v.695a.238.238,0,0,0,.1.194A.334.334,0,0,0,1108.988,5602.693Z" fill="#fff"/>
      <path id="Path_57" data-name="Path 57" d="M1106.877,5602.693h.5a.311.311,0,0,0,.206-.077.246.246,0,0,0,.09-.194v-.695a.265.265,0,0,0-.084-.206.3.3,0,0,0-.212-.077h-.5a.3.3,0,0,0-.213.077.265.265,0,0,0-.083.206v.695a.253.253,0,0,0,.083.194A.306.306,0,0,0,1106.877,5602.693Z" fill="#fff"/>
      <path id="Path_58" data-name="Path 58" d="M1118.259,5603.272H1120a.409.409,0,0,0,.161-.025c.039-.018.058-.06.058-.129v-.206c0-.1-.073-.155-.219-.155h-.863a.486.486,0,0,1-.193-.225.964.964,0,0,1-.09-.444q0-.58.682-.58c.043,0,.117,0,.219.007l.181.006c.111,0,.167-.047.167-.141v-.181c0-.069-.047-.12-.142-.154a2.55,2.55,0,0,0-.257-.039c-.086-.008-.163-.013-.232-.013a1.409,1.409,0,0,0-.9.251.952.952,0,0,0-.315.792,1.583,1.583,0,0,0,.051.393.874.874,0,0,0,.168.341h-.219c-.155,0-.232.043-.232.129v.219C1118.027,5603.221,1118.1,5603.272,1118.259,5603.272Z" fill="#fff"/>
      <path id="Path_59" data-name="Path 59" d="M1124.71,5612.517a.3.3,0,0,0,.206-.084.25.25,0,0,0,.09-.186v-.7a.264.264,0,0,0-.084-.206.3.3,0,0,0-.212-.078h-.5a.3.3,0,0,0-.212.078.263.263,0,0,0-.083.206v.7a.256.256,0,0,0,.083.186.289.289,0,0,0,.212.084Z" fill="#fff"/>
      <path id="Path_60" data-name="Path 60" d="M1127.027,5612.433a.251.251,0,0,0,.091-.186v-.7a.256.256,0,0,0-.091-.206.3.3,0,0,0-.206-.078h-.5a.328.328,0,0,0-.212.078.247.247,0,0,0-.1.206v.7a.242.242,0,0,0,.1.186.317.317,0,0,0,.212.084h.5A.293.293,0,0,0,1127.027,5612.433Z" fill="#fff"/>
      <path id="Path_61" data-name="Path 61" d="M1140.3,5608.822c0-.137.006-.271.006-.4v-7.777a.248.248,0,0,0-.064-.174.217.217,0,0,0-.168-.071h-.631a.243.243,0,0,0-.244.245v7.854c0,.223-.032.356-.1.4a1.038,1.038,0,0,1-.47.064h-1.493a5.348,5.348,0,0,0-.541.026,1.233,1.233,0,0,0-.425.116.916.916,0,0,0-.5.644.851.851,0,0,0-.026.141c-.008.069-.015.14-.019.213l-.013.212c0,.069-.007.12-.007.155a2.669,2.669,0,0,1-.321,1.39,1.278,1.278,0,0,1-1.133.438,1.3,1.3,0,0,1-1.172-.47,2.651,2.651,0,0,1-.309-1.435v-.322c.163,0,.341,0,.534-.007s.386-.013.58-.026.379-.029.56-.051a2.575,2.575,0,0,0,1.873-1.165,3.823,3.823,0,0,0,.457-1.932v-.193a2.307,2.307,0,0,0-.792-1.957,3.466,3.466,0,0,0-2.156-.605q-.5,0-.966.038a4.726,4.726,0,0,0-.876.155.335.335,0,0,0-.3.335v4.3h-4.339q-.116,0-.27-.012a2.386,2.386,0,0,1-.3-.046,1.187,1.187,0,0,1-.27-.09.291.291,0,0,1-.161-.161v-3.54a.242.242,0,0,0-.245-.245h-.592a.242.242,0,0,0-.245.245v3.373a.356.356,0,0,1-.1.264.592.592,0,0,1-.238.142,1.416,1.416,0,0,1-.3.058c-.1.008-.2.012-.283.012H1120.8q-.116,0-.27-.012a2.382,2.382,0,0,1-.3-.046,1.2,1.2,0,0,1-.27-.09.291.291,0,0,1-.161-.161v-3.54a.242.242,0,0,0-.244-.245h-.593a.242.242,0,0,0-.245.245v3.373a.357.357,0,0,1-.1.264.587.587,0,0,1-.238.142,1.4,1.4,0,0,1-.3.058c-.1.008-.2.012-.283.012h-6.334a1.258,1.258,0,0,1-.657-.148q-.244-.147-.245-.663v-3.618a.343.343,0,0,0-.032-.161c-.021-.039-.075-.066-.161-.084s-.206-.049-.335-.07-.264-.041-.405-.058-.286-.03-.432-.039-.274-.013-.386-.013a5.29,5.29,0,0,0-1.345.161,2.938,2.938,0,0,0-1.056.5,2.278,2.278,0,0,0-.689.882,3.147,3.147,0,0,0-.245,1.3v.335a2.612,2.612,0,0,0,.644,1.9,2.462,2.462,0,0,0,1.841.657h.116a3.831,3.831,0,0,0,1-.123,1.214,1.214,0,0,0,.676-.4,1.166,1.166,0,0,0,.6.579,2.471,2.471,0,0,0,.972.168h6.322a4.368,4.368,0,0,0,.805-.084,1.71,1.71,0,0,0,.766-.341,1.539,1.539,0,0,0,.753.341,4.739,4.739,0,0,0,.856.084h3.271a4.349,4.349,0,0,0,.8-.084,1.708,1.708,0,0,0,.767-.341,1.539,1.539,0,0,0,.753.341,4.729,4.729,0,0,0,.856.084h4.313v.425a5.205,5.205,0,0,0,.122,1.178,2.184,2.184,0,0,0,.419.888,1.849,1.849,0,0,0,.792.56,3.444,3.444,0,0,0,1.242.194,2.265,2.265,0,0,0,1.867-.7,3.344,3.344,0,0,0,.606-2.041l.013-.477a2.849,2.849,0,0,1,.315-.019c.159,0,.307-.006.444-.006h.876c.146,0,.3,0,.47-.007s.328-.013.482-.026.3-.025.425-.038a1.252,1.252,0,0,0,.3-.058.4.4,0,0,0,.206-.155.755.755,0,0,0,.077-.219c.017-.1.03-.218.039-.347S1140.291,5608.959,1140.3,5608.822Zm-7.629-3.6c.171-.026.335-.043.489-.052s.348-.013.579-.013a3.53,3.53,0,0,1,.767.077,1.453,1.453,0,0,1,.579.264,1.268,1.268,0,0,1,.374.5,1.937,1.937,0,0,1,.135.773v.231a2.177,2.177,0,0,1-.438,1.462,1.83,1.83,0,0,1-1.455.508h-1.03Zm-23.189,2.894a.558.558,0,0,1-.1.343.711.711,0,0,1-.271.213,1.229,1.229,0,0,1-.373.1,3.044,3.044,0,0,1-.4.026h-.245a1.437,1.437,0,0,1-1.185-.433,1.884,1.884,0,0,1-.347-1.208v-.271a2.006,2.006,0,0,1,.161-.859,1.372,1.372,0,0,1,.438-.543,1.669,1.669,0,0,1,.663-.278,4.28,4.28,0,0,1,.85-.078c.111,0,.231,0,.36.013s.279.022.451.039Z" fill="#fff"/>
      <path id="Path_62" data-name="Path 62" d="M1142.736,5610.071h.631a.208.208,0,0,0,.167-.078.271.271,0,0,0,.064-.18v-9.167a.276.276,0,0,0-.064-.181.21.21,0,0,0-.167-.077h-.631a.228.228,0,0,0-.174.077.258.258,0,0,0-.071.181v9.167a.254.254,0,0,0,.071.18A.226.226,0,0,0,1142.736,5610.071Z" fill="#fff"/>
    </g>
    <g id="Group_15" data-name="Group 15">
      <g id="Group_13" data-name="Group 13">
        <path id="Path_63" data-name="Path 63" d="M1087.946,5545.055h0l-3.857-1.811.237-.474-.473-.237-.3.461-2.591-1.217-1.329-.624-.409-.192-.409-.192-.034-.016-1.387-.651-.117-.055-.3-.14-.415-.195-.329-.154-.491-.231-2.767-1.3-.725-.341-.392-.184-3.354-1.575-.943-.443-1.451-.681-1.293-.607-.246-.115-1.457.115-.487.039,2.288,1.121,1.827.895,1.258.616,2.541,1.245.823.4,1.61.789,2.184,1.07.018.009.388.19.406.2,1.421.7.4.2.4.2h0l2.993,1.466.049.024.574.112.773.15.348.35-.392.611.7.352.221-.441,3.854,1.9.624-1.325Z" fill="#fff"/>
        <g id="Group_12" data-name="Group 12">
          <g id="Group_11" data-name="Group 11">
            <path id="Path_64" data-name="Path 64" d="M1078.748,5518.143l1.6-1.474.622-1.471.188-.445-.188-.026-.359-.051-.685-.1-1.6,3.567.055.335Z" fill="#fff"/>
            <path id="Path_65" data-name="Path 65" d="M1077.84,5539.115l.717-.337v-13.1l-1.047-.917-.188,0-1.082,1.02v12.992l1.159.544Z" fill="#fff"/>
            <path id="Path_66" data-name="Path 66" d="M1071.447,5529.332l.189-.178,1.346-1.268,1.086-1.023,1.179-1.11.994-.936v-.034l-1.065.017-1.813.027-.38.006-.453.007-2.4,2.212-1.053.972-.263,1.13-.76,3.263-.033.142.11-.1Z" fill="#fff"/>
            <path id="Path_67" data-name="Path 67" d="M1080.935,5517.084l-.628.579-.628.579-1.16,1.07.063.382.585-.243.464-.193.464-.193.87-.361,3.157-1.312,2.947-2.776-2.731-.673-3.373,3.112Z" fill="#fff"/>
            <path id="Path_68" data-name="Path 68" d="M1083.593,5518.375l-.92.383-1.706.709-1.262.525-.464.193-.464.193-.261.109.158.135.149.128.18,0,.385-.006,1.2-.017.383-.005.139,0,.522-.007,3.19-.045.452-.006,1.5-.584,3.787-1.471-2.147-1.3-.117-.071-.8-.483-2.981,1.239Z" fill="#fff"/>
            <path id="Path_69" data-name="Path 69" d="M1076.37,5518.647l.081-.512-1.437-3.212-1.232.175.882,2.085Z" fill="#fff"/>
            <path id="Path_70" data-name="Path 70" d="M1089.233,5521.309l-3.146.044-.681.009-1.01.015-.345,0-.665.009-2.419.034h-.1l-.522.007-.522.007-.193,0,.1.085.269.231.269.231.49.42.208.178.1.083.3.26.534.458.689.591,2.1-.032,3.715-.057,3.471-.053-1.687-1.613Z" fill="#fff"/>
            <path id="Path_71" data-name="Path 71" d="M1071.97,5524.144l.279,0,.529-.008.2,0,.324,0,2.235-.034-1.56-.588-.369-.139-.369-.139-.261-.1-4.052-1.528-1.933.027-.154,0-.72.01-2.985,2.644,5.344-.082Z" fill="#fff"/>
            <path id="Path_72" data-name="Path 72" d="M1069.053,5520.888l.9.34.9.34,2.127.8.841.317.369.139.369.139,1.33.5.243.091-.2-.174-.938-.821-.267-.234-.267-.233-.651-.57-.4-.347-.4-.347-.038-.033-2.522-2.208-4.419-1.837-1.376.831-1.682,1.015,2.9,1.093Z" fill="#fff"/>
            <path id="Path_73" data-name="Path 73" d="M1077.319,5519.461l.024.02.157.134.089.077.019.017h.263l-.033-.2-.007-.04-.026-.157-.043-.259-.061-.371-.1-.63-.088-.534h-.246l-.083.521-.1.637-.081.51.065.056Z" fill="#fff"/>
            <path id="Path_74" data-name="Path 74" d="M1071.668,5518.711l.83.727.484.424,1.091.955.4.347.4.347.118.1.267.234.267.233.717.629.031.027.011.009.453.4.017,0,0,.015.172.151.126.111.3.261.057.05.129.113.033.029.1.091.025.022.082.072.16.14.057.05.179.156.391.343.005,0,.973.852,1.432,1.254,1.475,1.292.306.267.423.371.423.37,1.82,1.594,1.337,1.17.368.323-.119-.438-.087-.319-.633-2.33-.382-1.407-.6-.512-.245-.211-1.377-1.181-1.345-1.153-.4-.346-.4-.347-.143-.123-.415-.356-.346-.3-.3-.26-.3-.261-.261-.224-.269-.231-.269-.23-.269-.23-.28-.241-.1-.086-.181-.155-.224-.192-.14-.12-.224-.192-.012-.01-.028-.025-.01-.008-.261-.224-.013-.011h0l-.125-.107-.011-.009-.15-.129-.119-.1,0,0,0-.009-.124-.106-.139-.118-.034-.03-.208-.179-.315-.269-.96-.824-.6-.515-.6-.515-.263-.226-.833-.715-2.847-2.441-2.7.772,3.407,2.983Z" fill="#fff"/>
            <path id="Path_75" data-name="Path 75" d="M1075.159,5541.153l-.522.245-1.655.778-1.741.817-.3-.461-.473.237.237.474-3.858,1.812.624,1.325,3.854-1.9.221.441.7-.352-.392-.611.348-.35.773-.151.574-.111.049-.024,2.993-1.466Z" fill="#fff"/>
            <path id="Path_76" data-name="Path 76" d="M1079.632,5540.371l1.335-.654,2.291-1.122,2.766-1.354,6.14-3.007-.488-.039-1.457-.115-.246.115-4.49,2.109-3.522,1.654-.995.467-2.41,1.132-.329.154.329.155Z" fill="#fff"/>
          </g>
        </g>
      </g>
      <g id="Group_14" data-name="Group 14">
        <path id="Path_77" data-name="Path 77" d="M1054.4,5528.037h-7.59q-.075,1.074-.076,2.163a30.937,30.937,0,0,0,.415,5.055h7.711a23.1,23.1,0,0,1-.564-5.058C1054.3,5529.468,1054.338,5528.749,1054.4,5528.037Z" fill="#fff"/>
        <path id="Path_78" data-name="Path 78" d="M1109.426,5530.2a32.474,32.474,0,0,1-.4,5.055h10.158a43.261,43.261,0,0,0,.355-5.525c0-.566-.014-1.13-.035-1.693h-10.156C1109.4,5528.754,1109.426,5529.475,1109.426,5530.2Z" fill="#fff"/>
        <path id="Path_79" data-name="Path 79" d="M1034.433,5528.037c-.021.563-.035,1.127-.035,1.693a43.261,43.261,0,0,0,.355,5.525h10.831a32.593,32.593,0,0,1-.4-5.055c0-.725.026-1.446.073-2.163Z" fill="#fff"/>
        <path id="Path_80" data-name="Path 80" d="M1100.017,5535.255h7.444a30.937,30.937,0,0,0,.415-5.055q0-1.089-.076-2.163h-7.323c.066.712.1,1.431.1,2.16A23.1,23.1,0,0,1,1100.017,5535.255Z" fill="#fff"/>
        <path id="Path_81" data-name="Path 81" d="M1135.611,5535.255v-7.218h-11.84c.019.563.033,1.127.033,1.693a47.365,47.365,0,0,1-.324,5.525Z" fill="#fff"/>
        <path id="Path_82" data-name="Path 82" d="M1030.137,5529.73c0-.566.014-1.13.033-1.693h-12.386v7.218h12.677A47.339,47.339,0,0,1,1030.137,5529.73Z" fill="#fff"/>
        <path id="Path_83" data-name="Path 83" d="M1046.29,5521.814a31.739,31.739,0,0,1,4.328-9.5l-9.932-4.879a42.017,42.017,0,0,0-4.338,9.494Z" fill="#fff"/>
        <path id="Path_84" data-name="Path 84" d="M1052.023,5513.007a30.223,30.223,0,0,0-4.314,9.5l6.989,3.434a23.037,23.037,0,0,1,4.192-9.565Z" fill="#fff"/>
        <path id="Path_85" data-name="Path 85" d="M1107.78,5540.4a31.788,31.788,0,0,1-4.887,9.224l9.028,4.435a42.11,42.11,0,0,0,4.878-9.228Z" fill="#fff"/>
        <path id="Path_86" data-name="Path 86" d="M1120.123,5547.96a46.729,46.729,0,0,1-4.339,7.992L1136.249,5566l4.6-9.364-20.22-9.933Q1120.384,5547.336,1120.123,5547.96Z" fill="#fff"/>
        <path id="Path_87" data-name="Path 87" d="M1033.818,5511.5a46.87,46.87,0,0,1,3.031-5.947l-12.8-6.29-4.6,9.364,13.045,6.408Q1033.082,5513.247,1033.818,5511.5Z" fill="#fff"/>
        <path id="Path_88" data-name="Path 88" d="M1101.476,5548.924a30.283,30.283,0,0,0,4.9-9.218l-6.656-3.269a23.1,23.1,0,0,1-5.023,9.156Z" fill="#fff"/>
        <path id="Path_89" data-name="Path 89" d="M1089.66,5559.851l4.808,7.83,7.795-4.787-4.751-7.735A31.841,31.841,0,0,1,1089.66,5559.851Z" fill="#fff"/>
        <path id="Path_90" data-name="Path 90" d="M1088.838,5558.512a30.319,30.319,0,0,0,7.857-4.684l-3.895-6.343a23.144,23.144,0,0,1-7.9,4.612Z" fill="#fff"/>
        <path id="Path_91" data-name="Path 91" d="M1064.168,5500.859l-5.3-8.634-7.794,4.786,5.375,8.753A31.856,31.856,0,0,1,1064.168,5500.859Z" fill="#fff"/>
        <path id="Path_92" data-name="Path 92" d="M1064.986,5502.192a30.373,30.373,0,0,0-7.719,4.909l4.021,6.548a23.2,23.2,0,0,1,7.677-4.978Z" fill="#fff"/>
        <path id="Path_93" data-name="Path 93" d="M1072.146,5576.318v11.462h9.1v-11.412q-2.124.192-4.278.195A47.668,47.668,0,0,1,1072.146,5576.318Z" fill="#fff"/>
        <path id="Path_94" data-name="Path 94" d="M1081.249,5507.376v-7.494a31.056,31.056,0,0,0-9.1.181v7.612a22.96,22.96,0,0,1,9.1-.3Z" fill="#fff"/>
        <path id="Path_95" data-name="Path 95" d="M1072.146,5561.906v10.125a43.317,43.317,0,0,0,4.825.272q2.157,0,4.278-.212V5562.08a32.639,32.639,0,0,1-9.1-.174Z" fill="#fff"/>
        <path id="Path_96" data-name="Path 96" d="M1072.146,5552.719v7.618a31,31,0,0,0,9.1.18v-7.5a22.94,22.94,0,0,1-9.1-.3Z" fill="#fff"/>
        <path id="Path_97" data-name="Path 97" d="M1081.249,5498.32v-10.952q-2.119-.21-4.278-.211a43.084,43.084,0,0,0-4.825.272v11.065a32.539,32.539,0,0,1,9.1-.174Z" fill="#fff"/>
        <path id="Path_98" data-name="Path 98" d="M1081.249,5483.091v-11.337h-9.1v11.388a47.385,47.385,0,0,1,4.825-.246C1078.407,5482.9,1079.833,5482.964,1081.249,5483.091Z" fill="#fff"/>
        <path id="Path_99" data-name="Path 99" d="M1095.709,5505.844a30.186,30.186,0,0,0-8-4.35l-3.845,6.476a23.08,23.08,0,0,1,8.083,4.216Z" fill="#fff"/>
        <path id="Path_100" data-name="Path 100" d="M1061.009,5546.473l-3.966,6.682a30.368,30.368,0,0,0,7.642,4.958l3.885-6.546A23.22,23.22,0,0,1,1061.009,5546.473Z" fill="#fff"/>
        <path id="Path_101" data-name="Path 101" d="M1050.93,5563.454a42.154,42.154,0,0,0,7.751,4.774l5.208-8.774a31.889,31.889,0,0,1-7.65-4.944Z" fill="#fff"/>
        <path id="Path_102" data-name="Path 102" d="M1104.154,5491.617l5.609-9.451-7.827-4.646-5.672,9.557c.26.118.521.235.78.358A46.706,46.706,0,0,1,1104.154,5491.617Z" fill="#fff"/>
        <path id="Path_103" data-name="Path 103" d="M1042.715,5577.294l7.828,4.646,5.961-10.044a46.611,46.611,0,0,1-7.761-4.757Z" fill="#fff"/>
        <path id="Path_104" data-name="Path 104" d="M1101.974,5495.29a42.151,42.151,0,0,0-7.893-4.536l-5.57,9.383a31.757,31.757,0,0,1,7.994,4.366Z" fill="#fff"/>
        <path id="Path_105" data-name="Path 105" d="M1097,5517.843l5.641-4.743a31.081,31.081,0,0,0-2.227-2.779c-.432-.48-.878-.941-1.334-1.389l-5.544,4.661A23.339,23.339,0,0,1,1097,5517.843Z" fill="#fff"/>
        <path id="Path_106" data-name="Path 106" d="M1100.274,5507.93c.442.438.874.888,1.294,1.354a32.443,32.443,0,0,1,2.265,2.816l7.052-5.93-3.528-4.195Z" fill="#fff"/>
        <path id="Path_107" data-name="Path 107" d="M1108.384,5521.728l9.513-4.17a52.683,52.683,0,0,0-2.377-6.033l-9.479,4.154A40.223,40.223,0,0,1,1108.384,5521.728Z" fill="#fff"/>
        <path id="Path_108" data-name="Path 108" d="M1048.664,5540.761a47.536,47.536,0,0,0,2.951,5.822l6.892-3.021a23.089,23.089,0,0,1-2.974-5.811Z" fill="#fff"/>
        <path id="Path_109" data-name="Path 109" d="M1106.942,5522.36a38.207,38.207,0,0,0-2.32-6.059l-6.827,2.992a22.937,22.937,0,0,1,2.249,6.09Z" fill="#fff"/>
        <path id="Path_110" data-name="Path 110" d="M1018.73,5553.88l2.519,6.011,15.284-6.7c-.945-1.8-1.8-3.446-2.859-5.863Z" fill="#fff"/>
        <path id="Path_111" data-name="Path 111" d="M1121.8,5515.869l18.812-8.191-2.757-5.942-18.442,8.082a5.669,5.669,0,0,1,.4.836C1120.385,5512,1121,5513.619,1121.8,5515.869Z" fill="#fff"/>
        <path id="Path_112" data-name="Path 112" d="M1047.244,5541.383l-9.68,4.243c1.056,2.406,1.927,4.044,2.9,5.843l9.71-4.255A50.873,50.873,0,0,1,1047.244,5541.383Z" fill="#fff"/>
      </g>
    </g>
  </g>
</svg>
