<svg xmlns="http://www.w3.org/2000/svg" xmlns:xlink="http://www.w3.org/1999/xlink" width="111.952" height="115.612" viewBox="0 0 111.952 115.612">
  <defs>
    <clipPath id="clip-path">
      <path id="Path_10376" data-name="Path 10376" d="M1794.131,2195.671a2.7,2.7,0,0,1-1.769-1.532,7.139,7.139,0,0,1,1.389-6.244,3.663,3.663,0,0,1,.918-.775,2.429,2.429,0,0,1,1.374,2.181c-.094,1.041.874-.732,1.145-2.337,2.773.888,3.02,2.844,2.971,3.712a5.84,5.84,0,0,1-5.2,5.044,1.764,1.764,0,0,1-.825-.049m16.416,11.679a32.367,32.367,0,0,1-.2,3.764c-.034.315-.084.662-.154,1.02a20.4,20.4,0,0,1-4.382,9.288l-.012.016a18.978,18.978,0,0,1-7.079,4.375,14.755,14.755,0,0,1-15.491-3.284l-.068-.068c-3.221,2.514-9.064,7.236-15.687,5.562-7.7-2.684-10.22-8.014-9.946-16.006.1-2.942.149-21.854-.208-23.414a19.229,19.229,0,0,1,.121-7.563,3.334,3.334,0,0,1,.712-1.355,8.542,8.542,0,0,0,.8,5.6,10.906,10.906,0,0,0,.78,1.417c-.012-.04-.109-.415-.251-1.15-.12-.635-.276-1.542-.444-2.736a5.565,5.565,0,0,1,.878-3.524c.554-.938,1.91-1.5,3.636-1.415a3.41,3.41,0,0,1,1.482.325c.171.113.592.419.306.84-.113.207-.5,1.218-.617,1.448-1.227,2.4-1.964,20.152-1.971,20.614-.013.714-.9,11.579.919,15.182,1.755,3.487,6.387,5.06,10.32,4.593a9.684,9.684,0,0,0,1.346-.254,6.608,6.608,0,0,0,4-2.462,10.91,10.91,0,0,1-7.872-4.488,10.482,10.482,0,0,1-.808-1.282,9.837,9.837,0,0,1-.843-2.076,10.791,10.791,0,0,1,.168-6.35,13.463,13.463,0,0,1,4.068-5.7,10.784,10.784,0,0,1,5.417-2.718,7.9,7.9,0,0,1,2.15,0,9.576,9.576,0,0,1,1.8.4,11.959,11.959,0,0,1,1.758.719,11.136,11.136,0,0,1,4.382,3.764c.075.116.15.236.221.357a8.627,8.627,0,0,1,.469.916,6.844,6.844,0,0,1,.588,3.156,6,6,0,0,1-2.324,4.316c-.574.439-1.541.7-1.915.082a3.478,3.478,0,0,0,1.015-3.81,4.92,4.92,0,0,0-.309-.744,5.688,5.688,0,0,0-.668-1,9.351,9.351,0,0,0-1.593-1.511,17.411,17.411,0,0,1,.943,2.1c.121.327.235.659.336,1,.024.076.047.156.066.236a2.7,2.7,0,0,1-.374,2.71,12.082,12.082,0,0,0-.87-1.63,11.047,11.047,0,0,0-.679-.974,12.528,12.528,0,0,0-4.141-3.463,5.812,5.812,0,0,0-1.456-.545,2.821,2.821,0,0,0-1.213-.009,1.471,1.471,0,0,0-.223.059,3.517,3.517,0,0,0-1.808,1.714,7.549,7.549,0,0,0-.944,3.763,5.182,5.182,0,0,0,1.649,3.925,1.051,1.051,0,0,0,.115.093,4.514,4.514,0,0,0,1.255.679,8.869,8.869,0,0,0,2.75.434,19.762,19.762,0,0,0,6.849-1.065,27.029,27.029,0,0,1,4.142-1.359,4.824,4.824,0,0,1,4.107.942,2.932,2.932,0,0,1,.785,2.882,2.061,2.061,0,0,1-.633.981c-.951.795-2.354.609-3.58.793a7.319,7.319,0,0,0-3.269,1.484,8.239,8.239,0,0,0,2.644,2.174c7.552,4.026,12.646-1.64,14.683-4.131.721-1.072,1.542-2.726,1.445-3.692a9.169,9.169,0,0,1-6.172,2.941c-1.564.121-3.252-.936-4.412-2.811-4.378-8.887,1.562-14.051,5.8-14.792a3.632,3.632,0,0,1,.934,0,7.818,7.818,0,0,1,3.821,1.766c.19.209.368.409.542.614,2.675,3.118,2.407,7.277,2.419,8.347m-5.252-.843c.443-1.66-.068-3.292-1.231-3.6-1.135-.347-2.463.781-2.9,2.433-.471,1.684.268,2.671,1.435,2.986s2.263-.168,2.7-1.816m-74.005,29.816a.692.692,0,0,0-.005.827c.09.093.272.14.546,0,4.429-2.451,8.94-3.384,13.429-1.377a.045.045,0,0,1,.046.046c1.405.7,2.579,1.949,4.148-1.166,2.179-7.3-14.441-3.731-18.164,1.666m-27.591-12.675a10.643,10.643,0,0,0,7.733,2.223c3.565-.423,7.1-2.12,10.535-4.277l.024-.014c.981-.619,1.955-1.275,2.914-1.946,0,0,18.479-12.954,19.9-14.855-3.307,1.8-5.15,3.174-6.236,3.542-.083.03,12.226-8.621,1.676-3.9-.615.275-.282-1.26-.908-1.015-1.377.538-9.79,6.4-11.557,7.391-.2.116-.413.23-.622.343q-.906.492-1.856.965a43.566,43.566,0,0,1-15.468,4.382,6.842,6.842,0,0,1-1.459-.005c-5.3-.627-4.979-4.948-4.789-5.755a20.827,20.827,0,0,1,1.139-3.039c-1.666-.318-3.5,3.231-4.473,6.012.386-1.582.383-2.82,3.2-6.915-.173.007-.576.392-.88.71a21.053,21.053,0,0,0-3.851,7.7c-.281,1.094-.193,5.1,1.456,6.144a8.347,8.347,0,0,0,4.645,1.294,25.424,25.424,0,0,0,9.138-1.553c-1.045,2.012-8.578,2.8-10.261,2.571m38.776-6.554s1.181,3.99,4.658,3.551c3.216-.117,2.669-5.155,2.719-6.5.039-1.675.047-3.351.071-5.026q.066-5.223.108-10.451c0-.212.007-.423.005-.638v-.228c0-.446.011-.9.014-1.344q.015-1.382.023-2.764a12.232,12.232,0,0,0-.575-3.256c-.3-1.13-.6-2.258-.882-3.389-.016-.056-.028-.107-.043-.164-.085-.343-.264-1.051-.264-1.055a11.431,11.431,0,0,1-.157-4.959,3.931,3.931,0,0,1,.513-1.441c-.352,3.006,1.771,5.789,2.4,6.531.087.109.146.173.162.189-.008-.016-.031-.076-.075-.184-.094-.232-.266-.688-.5-1.384-.113-.335-.238-.727-.374-1.179-.094-.3-.191-.64-.3-1a5.585,5.585,0,0,1,.372-3.616c.41-1.007,1.676-1.752,3.4-1.915a3.447,3.447,0,0,1,1.507.114c.187.085.609.244.422.789a8.441,8.441,0,0,0-.4,1.517c-.563,4.822,1.823,41.791-1.217,45.684a6.135,6.135,0,0,1-4.78,3.042c-2.241.44-6.675.1-7.5-2.414-1.774,1.572-2.89,2.521-5.143,2.466-6.653-.166-9.284-4.437-9.585-6.47a6.857,6.857,0,0,1-.064-1.181c.013-.674.04-1.679.04-1.691.861-.561,4.991-3.524,6.127-4.453,0,.183.006.255.008.442.014.862-.591,4.683,2.051,5.759,1.678.686,2.9-.231,4.476-1.736,1.136-1.081,2.021-3.309,2.784-1.644m2.176,9.082s-.775-.005,1.519.539c5.709,1.354,6.964-4.9,6.964-4.9-3.1,6.012-8.483,4.363-8.483,4.363m-18.561-34.668c1.617,3.829,1.368,17.762,1.4,18.444,1.674-1,4.023-2.3,5.5-3.272-.008-.487-.157-5.95-.2-8.124-.009-.415-.018-.826-.027-1.237l-.009-.483c-.006-.279-.012-.554-.018-.833q-.018-.754-.049-1.509c-.087-2.482-.2-4.967-.12-7.444a27.22,27.22,0,0,1,.286-3.214c.1-.661.739-1.905-.068-2.23a3.478,3.478,0,0,0-1.511-.115c-1.725.168-2.987.913-3.4,1.919a5.561,5.561,0,0,0-.368,3.616,35.7,35.7,0,0,0,1.239,3.747c-.112-.125-2.957-3.28-2.558-6.724a4.038,4.038,0,0,0-.509,1.44,11.426,11.426,0,0,0,.188,5.092c.077.312.159.619.228.927m-14.757,7.19c-2.435.752-4.293,4-5.063,5.526,3.744-3.959,8.051-6.383,13.391-5.91l.069,0c1.724.337,3.452,1.22,3.977-2.647.915-6.511-16.583,1.287-18.618,8.282a.822.822,0,0,0-.023.409c2.981-4.378,4.4-5.323,6.267-5.663m65.593,65.015a15.421,15.421,0,0,0,9.7-.232c-.333.239-.671.469-1.015.7a10.129,10.129,0,0,1-1.933.969c-5.538,2.234-10.3.658-14.627-3.7a12.789,12.789,0,0,1-1.257-1.468c-.6.66-1.179,1.854-2.065,3.008-2.8,3.645-8.626,5.571-14.974-.669-.441-.431-1.137-1.461-1.7-1.2l-.008,0c-1.314.706-3.238,6.663-13.809,4.854a12,12,0,0,1-5.537-2.337c5.308,1.663,7.354.951,8.372.594-11.086-.457-11.284-6.249-11.743-6.093-.882-.042-.017,2.345-1.581,4.244-2.687,3.264-6.966,3.5-10.269,2.2a4.654,4.654,0,0,1-1.8-1.524,9.318,9.318,0,0,0,7.518-.4,12.311,12.311,0,0,1-10.418-3.49c-1.623-1.643-4.224-3.852-4.017-4.5.935-.078,1.632.757,2.418,1.268,3.826,2.492,6.234,3.1,8.606,2.052a17,17,0,0,0,3.661-2.13c.8-.628,6.743-4.152-1.007-10.96-1.722-1.512-1.235-2.867.849-5.232.118-.133.476-.483.889-.894a5.8,5.8,0,0,1,.735.959,17.985,17.985,0,0,1,2.564,5.96s-.164-4.91-2.46-7.794a5.11,5.11,0,0,1,.81-.794c2.381.09,5.024,11.721,7.355,16.246,1.956,3.8,8.349,7.658,14.4,2.3,1.757-1.557,2.219-3.283,2.887-3.821a1.038,1.038,0,0,1,.594-.246,1.014,1.014,0,0,1,.125,0,.976.976,0,0,1,.543.232c.971.847,1.6,3.077,2.474,3.987,2.548,2.653,6.817,3.692,9.739,2.033a5.5,5.5,0,0,0,2.136-1.72,11.663,11.663,0,0,1-4.953-2.159,10.215,10.215,0,0,1-3.423-4.874,10.639,10.639,0,0,1,3.227-11.818c1.778-1.575,5.721-5.208,11.539-2.546a11.026,11.026,0,0,1,4.127,3.254,8.62,8.62,0,0,1,1.937,4.574,5.737,5.737,0,0,1-2.8,5.417,1.45,1.45,0,0,1-1.2.375.96.96,0,0,1-.57-.442c.9-.79,2.446-2.676.413-5.53-.2-.278,1.259,2.578-.925,4.449-.064-.222-.172-.445-.281-.714a13.373,13.373,0,0,0-4.081-5.239c-1.463-1.076-2.937-1.507-3.875-1.154a4.812,4.812,0,0,0-2.475,6.233c1.225,3.778,5.315,4.34,7.764,4.508a16.53,16.53,0,0,0,4.962-.911c2.965-.821,5.648-1.368,7.2.669.659.878,1.142,1.783.579,2.814-.621,1.156-1.757,1.083-2.871,1.135a10.263,10.263,0,0,0-5.064,1.641c4.032,3.256,8.2,3.163,12.877,1.761a4.492,4.492,0,0,0,2.75-2.114,3.519,3.519,0,0,0,.44-2.252c-.378-4.764-1.767-9.328-2.94-13.94-.069-.291-.146-.588-.219-.884a10.937,10.937,0,0,1-.18-4.867,3.821,3.821,0,0,1,.488-1.378c-.385,3.293,2.338,6.309,2.444,6.426a34.1,34.1,0,0,1-1.184-3.58,5.33,5.33,0,0,1,.351-3.458c.4-.961,1.6-1.675,3.253-1.832a3.262,3.262,0,0,1,1.443.11c.179.083.615.315.4.753-.075.21-.181.577-.263.784a18.139,18.139,0,0,0-.729,6.138,52.07,52.07,0,0,0,.885,8.041c1.693,9.353-1.257,13.227-1.258,13.229a3.472,3.472,0,0,1-.624.822c-5.628,5.434-14.4,3.733-13.313,4.159m-12.277-1.754.18-.2h0l-.18.2c-1.4,1.307-5.025,3.488-11.488-.308,0,0,5.189,6.511,10.864,1.011.12-.136.416-.469.624-.7h0m37.5-33.242a3.286,3.286,0,0,0-1.415-.314c-1.654-.077-2.949.457-3.477,1.354a5.343,5.343,0,0,0-.842,3.371,35.227,35.227,0,0,0,.665,3.712c-.089-.13-2.353-3.5-1.507-6.707a3.87,3.87,0,0,0-.68,1.295,10.977,10.977,0,0,0-.511,4.842c.033.306.065.609.094.908.234,2.214.769,8.816.769,8.816s0,.021,0,.04c1.064,7.646-.121,11.753-3.856,15.038.512-.146,5.106-4.666,6.111-5.66a8.417,8.417,0,0,0,2.471-3.482c1.12-3.334.4-5.1.441-8.716.025-2.363.274-4.494.468-6.8a26.23,26.23,0,0,1,.968-5.512c.066-.216.139-.433.215-.644.108-.194.265-.544.373-.74.273-.4-.129-.694-.291-.8m-55.515,39.865a.048.048,0,0,1-.045.053c-4.688,2.516-9.636,1.888-14.621-.369-.307-.123-.5-.058-.59.049a.736.736,0,0,0,.074.884c4.459,5.466,22.7,7.916,19.758.289-1.948-3.2-3.115-1.77-4.576-.906" fill="#fff"/>
    </clipPath>
  </defs>
  <g id="Group_4001" data-name="Group 4001" transform="translate(-1698.597 -2176.841)">
    <g id="Group_3999" data-name="Group 3999">
      <path id="Path_10368" data-name="Path 10368" d="M1794.131,2195.671a2.7,2.7,0,0,1-1.769-1.532,7.139,7.139,0,0,1,1.389-6.244,3.663,3.663,0,0,1,.918-.775,2.429,2.429,0,0,1,1.374,2.181c-.094,1.041.874-.732,1.145-2.337,2.773.888,3.02,2.844,2.971,3.712a5.84,5.84,0,0,1-5.2,5.044,1.764,1.764,0,0,1-.825-.049m16.416,11.679a32.367,32.367,0,0,1-.2,3.764c-.034.315-.084.662-.154,1.02a20.4,20.4,0,0,1-4.382,9.288l-.012.016a18.978,18.978,0,0,1-7.079,4.375,14.755,14.755,0,0,1-15.491-3.284l-.068-.068c-3.221,2.514-9.064,7.236-15.687,5.562-7.7-2.684-10.22-8.014-9.946-16.006.1-2.942.149-21.854-.208-23.414a19.229,19.229,0,0,1,.121-7.563,3.334,3.334,0,0,1,.712-1.355,8.542,8.542,0,0,0,.8,5.6,10.906,10.906,0,0,0,.78,1.417c-.012-.04-.109-.415-.251-1.15-.12-.635-.276-1.542-.444-2.736a5.565,5.565,0,0,1,.878-3.524c.554-.938,1.91-1.5,3.636-1.415a3.41,3.41,0,0,1,1.482.325c.171.113.592.419.306.84-.113.207-.5,1.218-.617,1.448-1.227,2.4-1.964,20.152-1.971,20.614-.013.714-.9,11.579.919,15.182,1.755,3.487,6.387,5.06,10.32,4.593a9.684,9.684,0,0,0,1.346-.254,6.608,6.608,0,0,0,4-2.462,10.91,10.91,0,0,1-7.872-4.488,10.482,10.482,0,0,1-.808-1.282,9.837,9.837,0,0,1-.843-2.076,10.791,10.791,0,0,1,.168-6.35,13.463,13.463,0,0,1,4.068-5.7,10.784,10.784,0,0,1,5.417-2.718,7.9,7.9,0,0,1,2.15,0,9.576,9.576,0,0,1,1.8.4,11.959,11.959,0,0,1,1.758.719,11.136,11.136,0,0,1,4.382,3.764c.075.116.15.236.221.357a8.627,8.627,0,0,1,.469.916,6.844,6.844,0,0,1,.588,3.156,6,6,0,0,1-2.324,4.316c-.574.439-1.541.7-1.915.082a3.478,3.478,0,0,0,1.015-3.81,4.92,4.92,0,0,0-.309-.744,5.688,5.688,0,0,0-.668-1,9.351,9.351,0,0,0-1.593-1.511,17.411,17.411,0,0,1,.943,2.1c.121.327.235.659.336,1,.024.076.047.156.066.236a2.7,2.7,0,0,1-.374,2.71,12.082,12.082,0,0,0-.87-1.63,11.047,11.047,0,0,0-.679-.974,12.528,12.528,0,0,0-4.141-3.463,5.812,5.812,0,0,0-1.456-.545,2.821,2.821,0,0,0-1.213-.009,1.471,1.471,0,0,0-.223.059,3.517,3.517,0,0,0-1.808,1.714,7.549,7.549,0,0,0-.944,3.763,5.182,5.182,0,0,0,1.649,3.925,1.051,1.051,0,0,0,.115.093,4.514,4.514,0,0,0,1.255.679,8.869,8.869,0,0,0,2.75.434,19.762,19.762,0,0,0,6.849-1.065,27.029,27.029,0,0,1,4.142-1.359,4.824,4.824,0,0,1,4.107.942,2.932,2.932,0,0,1,.785,2.882,2.061,2.061,0,0,1-.633.981c-.951.795-2.354.609-3.58.793a7.319,7.319,0,0,0-3.269,1.484,8.239,8.239,0,0,0,2.644,2.174c7.552,4.026,12.646-1.64,14.683-4.131.721-1.072,1.542-2.726,1.445-3.692a9.169,9.169,0,0,1-6.172,2.941c-1.564.121-3.252-.936-4.412-2.811-4.378-8.887,1.562-14.051,5.8-14.792a3.632,3.632,0,0,1,.934,0,7.818,7.818,0,0,1,3.821,1.766c.19.209.368.409.542.614,2.675,3.118,2.407,7.277,2.419,8.347m-5.252-.843c.443-1.66-.068-3.292-1.231-3.6-1.135-.347-2.463.781-2.9,2.433-.471,1.684.268,2.671,1.435,2.986s2.263-.168,2.7-1.816m-74.005,29.816a.692.692,0,0,0-.005.827c.09.093.272.14.546,0,4.429-2.451,8.94-3.384,13.429-1.377a.045.045,0,0,1,.046.046c1.405.7,2.579,1.949,4.148-1.166,2.179-7.3-14.441-3.731-18.164,1.666m-27.591-12.675a10.643,10.643,0,0,0,7.733,2.223c3.565-.423,7.1-2.12,10.535-4.277l.024-.014c.981-.619,1.955-1.275,2.914-1.946,0,0,18.479-12.954,19.9-14.855-3.307,1.8-5.15,3.174-6.236,3.542-.083.03,12.226-8.621,1.676-3.9-.615.275-.282-1.26-.908-1.015-1.377.538-9.79,6.4-11.557,7.391-.2.116-.413.23-.622.343q-.906.492-1.856.965a43.566,43.566,0,0,1-15.468,4.382,6.842,6.842,0,0,1-1.459-.005c-5.3-.627-4.979-4.948-4.789-5.755a20.827,20.827,0,0,1,1.139-3.039c-1.666-.318-3.5,3.231-4.473,6.012.386-1.582.383-2.82,3.2-6.915-.173.007-.576.392-.88.71a21.053,21.053,0,0,0-3.851,7.7c-.281,1.094-.193,5.1,1.456,6.144a8.347,8.347,0,0,0,4.645,1.294,25.424,25.424,0,0,0,9.138-1.553c-1.045,2.012-8.578,2.8-10.261,2.571m38.776-6.554s1.181,3.99,4.658,3.551c3.216-.117,2.669-5.155,2.719-6.5.039-1.675.047-3.351.071-5.026q.066-5.223.108-10.451c0-.212.007-.423.005-.638v-.228c0-.446.011-.9.014-1.344q.015-1.382.023-2.764a12.232,12.232,0,0,0-.575-3.256c-.3-1.13-.6-2.258-.882-3.389-.016-.056-.028-.107-.043-.164-.085-.343-.264-1.051-.264-1.055a11.431,11.431,0,0,1-.157-4.959,3.931,3.931,0,0,1,.513-1.441c-.352,3.006,1.771,5.789,2.4,6.531.087.109.146.173.162.189-.008-.016-.031-.076-.075-.184-.094-.232-.266-.688-.5-1.384-.113-.335-.238-.727-.374-1.179-.094-.3-.191-.64-.3-1a5.585,5.585,0,0,1,.372-3.616c.41-1.007,1.676-1.752,3.4-1.915a3.447,3.447,0,0,1,1.507.114c.187.085.609.244.422.789a8.441,8.441,0,0,0-.4,1.517c-.563,4.822,1.823,41.791-1.217,45.684a6.135,6.135,0,0,1-4.78,3.042c-2.241.44-6.675.1-7.5-2.414-1.774,1.572-2.89,2.521-5.143,2.466-6.653-.166-9.284-4.437-9.585-6.47a6.857,6.857,0,0,1-.064-1.181c.013-.674.04-1.679.04-1.691.861-.561,4.991-3.524,6.127-4.453,0,.183.006.255.008.442.014.862-.591,4.683,2.051,5.759,1.678.686,2.9-.231,4.476-1.736,1.136-1.081,2.021-3.309,2.784-1.644m2.176,9.082s-.775-.005,1.519.539c5.709,1.354,6.964-4.9,6.964-4.9-3.1,6.012-8.483,4.363-8.483,4.363m-18.561-34.668c1.617,3.829,1.368,17.762,1.4,18.444,1.674-1,4.023-2.3,5.5-3.272-.008-.487-.157-5.95-.2-8.124-.009-.415-.018-.826-.027-1.237l-.009-.483c-.006-.279-.012-.554-.018-.833q-.018-.754-.049-1.509c-.087-2.482-.2-4.967-.12-7.444a27.22,27.22,0,0,1,.286-3.214c.1-.661.739-1.905-.068-2.23a3.478,3.478,0,0,0-1.511-.115c-1.725.168-2.987.913-3.4,1.919a5.561,5.561,0,0,0-.368,3.616,35.7,35.7,0,0,0,1.239,3.747c-.112-.125-2.957-3.28-2.558-6.724a4.038,4.038,0,0,0-.509,1.44,11.426,11.426,0,0,0,.188,5.092c.077.312.159.619.228.927m-14.757,7.19c-2.435.752-4.293,4-5.063,5.526,3.744-3.959,8.051-6.383,13.391-5.91l.069,0c1.724.337,3.452,1.22,3.977-2.647.915-6.511-16.583,1.287-18.618,8.282a.822.822,0,0,0-.023.409c2.981-4.378,4.4-5.323,6.267-5.663m65.593,65.015a15.421,15.421,0,0,0,9.7-.232c-.333.239-.671.469-1.015.7a10.129,10.129,0,0,1-1.933.969c-5.538,2.234-10.3.658-14.627-3.7a12.789,12.789,0,0,1-1.257-1.468c-.6.66-1.179,1.854-2.065,3.008-2.8,3.645-8.626,5.571-14.974-.669-.441-.431-1.137-1.461-1.7-1.2l-.008,0c-1.314.706-3.238,6.663-13.809,4.854a12,12,0,0,1-5.537-2.337c5.308,1.663,7.354.951,8.372.594-11.086-.457-11.284-6.249-11.743-6.093-.882-.042-.017,2.345-1.581,4.244-2.687,3.264-6.966,3.5-10.269,2.2a4.654,4.654,0,0,1-1.8-1.524,9.318,9.318,0,0,0,7.518-.4,12.311,12.311,0,0,1-10.418-3.49c-1.623-1.643-4.224-3.852-4.017-4.5.935-.078,1.632.757,2.418,1.268,3.826,2.492,6.234,3.1,8.606,2.052a17,17,0,0,0,3.661-2.13c.8-.628,6.743-4.152-1.007-10.96-1.722-1.512-1.235-2.867.849-5.232.118-.133.476-.483.889-.894a5.8,5.8,0,0,1,.735.959,17.985,17.985,0,0,1,2.564,5.96s-.164-4.91-2.46-7.794a5.11,5.11,0,0,1,.81-.794c2.381.09,5.024,11.721,7.355,16.246,1.956,3.8,8.349,7.658,14.4,2.3,1.757-1.557,2.219-3.283,2.887-3.821a1.038,1.038,0,0,1,.594-.246,1.014,1.014,0,0,1,.125,0,.976.976,0,0,1,.543.232c.971.847,1.6,3.077,2.474,3.987,2.548,2.653,6.817,3.692,9.739,2.033a5.5,5.5,0,0,0,2.136-1.72,11.663,11.663,0,0,1-4.953-2.159,10.215,10.215,0,0,1-3.423-4.874,10.639,10.639,0,0,1,3.227-11.818c1.778-1.575,5.721-5.208,11.539-2.546a11.026,11.026,0,0,1,4.127,3.254,8.62,8.62,0,0,1,1.937,4.574,5.737,5.737,0,0,1-2.8,5.417,1.45,1.45,0,0,1-1.2.375.96.96,0,0,1-.57-.442c.9-.79,2.446-2.676.413-5.53-.2-.278,1.259,2.578-.925,4.449-.064-.222-.172-.445-.281-.714a13.373,13.373,0,0,0-4.081-5.239c-1.463-1.076-2.937-1.507-3.875-1.154a4.812,4.812,0,0,0-2.475,6.233c1.225,3.778,5.315,4.34,7.764,4.508a16.53,16.53,0,0,0,4.962-.911c2.965-.821,5.648-1.368,7.2.669.659.878,1.142,1.783.579,2.814-.621,1.156-1.757,1.083-2.871,1.135a10.263,10.263,0,0,0-5.064,1.641c4.032,3.256,8.2,3.163,12.877,1.761a4.492,4.492,0,0,0,2.75-2.114,3.519,3.519,0,0,0,.44-2.252c-.378-4.764-1.767-9.328-2.94-13.94-.069-.291-.146-.588-.219-.884a10.937,10.937,0,0,1-.18-4.867,3.821,3.821,0,0,1,.488-1.378c-.385,3.293,2.338,6.309,2.444,6.426a34.1,34.1,0,0,1-1.184-3.58,5.33,5.33,0,0,1,.351-3.458c.4-.961,1.6-1.675,3.253-1.832a3.262,3.262,0,0,1,1.443.11c.179.083.615.315.4.753-.075.21-.181.577-.263.784a18.139,18.139,0,0,0-.729,6.138,52.07,52.07,0,0,0,.885,8.041c1.693,9.353-1.257,13.227-1.258,13.229a3.472,3.472,0,0,1-.624.822c-5.628,5.434-14.4,3.733-13.313,4.159m-12.277-1.754.18-.2h0l-.18.2c-1.4,1.307-5.025,3.488-11.488-.308,0,0,5.189,6.511,10.864,1.011.12-.136.416-.469.624-.7h0m37.5-33.242a3.286,3.286,0,0,0-1.415-.314c-1.654-.077-2.949.457-3.477,1.354a5.343,5.343,0,0,0-.842,3.371,35.227,35.227,0,0,0,.665,3.712c-.089-.13-2.353-3.5-1.507-6.707a3.87,3.87,0,0,0-.68,1.295,10.977,10.977,0,0,0-.511,4.842c.033.306.065.609.094.908.234,2.214.769,8.816.769,8.816s0,.021,0,.04c1.064,7.646-.121,11.753-3.856,15.038.512-.146,5.106-4.666,6.111-5.66a8.417,8.417,0,0,0,2.471-3.482c1.12-3.334.4-5.1.441-8.716.025-2.363.274-4.494.468-6.8a26.23,26.23,0,0,1,.968-5.512c.066-.216.139-.433.215-.644.108-.194.265-.544.373-.74.273-.4-.129-.694-.291-.8m-55.515,39.865a.048.048,0,0,1-.045.053c-4.688,2.516-9.636,1.888-14.621-.369-.307-.123-.5-.058-.59.049a.736.736,0,0,0,.074.884c4.459,5.466,22.7,7.916,19.758.289-1.948-3.2-3.115-1.77-4.576-.906" fill="#fff"/>
      <g id="Group_3998" data-name="Group 3998" clip-path="url(#clip-path)">
        <g id="Group_3997" data-name="Group 3997">
          <path id="Path_10369" data-name="Path 10369" d="M1808.953,2186.809c-53.023-67.769-95.258,4.025-132.114,42.254-21.819,22.632-52.162,34.673-77.981,26.081l-36.7-25.027a38.777,38.777,0,0,1-1.456,5.035q-2.157,4.092-4.315,8.185a23.3,23.3,0,0,1-10.082,8.726c-.311.219-.626.426-.944.629,24.338,15.885,60.238,26.357,93.747,15.791,43.824-13.818,66.376-31.378,127.062-3.9,64.273,29.107,75.372-36.122,42.78-77.778" fill="#fff"/>
          <path id="Path_10370" data-name="Path 10370" d="M1821,2099.182c-.652,1.008-1.273,2.022-1.888,3.044-15.6,26.112-29.1,54.586-40.888,82.484-7.211,17.068-18.683,23.388-32.061,23.252-4.1-.042-23.994-4.992-25.834-6.452-.651-.516-1.294-1.042-1.971-1.51a116.16,116.16,0,0,1-14.719-12.374c-12.21-11.911-23.853-25.642-38.83-32-19.941-8.475-42.723.282-52.965,18.378a41.8,41.8,0,0,0-4.278,10.887c-3.913,16.341.356,34.408,1.425,51.81a125.782,125.782,0,0,1-27.034,85.25c23.27-25.515,40.836-57.214,51.1-92.22,2.379-8.15,4.444-16.613,8.787-23.55s11.564-12.241,19.667-11.347c11.691,1.309,20.214,14.251,25.283,26.289,7.062,16.748,12.589,34.457,18.168,51.719s11.49,34.563,23.26,48.131,28.879,22.829,44.638,20.185c14.61-2.46,25.787-14.7,31.672-29.14s7.225-30.994,8.021-47.285c2-40.736,1.169-82.646,10.8-120.819,9.7-38.476-1.02,42.042,89.894-37.083-26.716-27.617-76.5-32.389-92.252-7.644" fill="#fff"/>
          <path id="Path_10371" data-name="Path 10371" d="M1857.032,2145c-46.262-25.414-31.645,46.54-61.176,64.537-18.193,11.088-21.775,31.508-38.186,34.007-4.9.747-10.461-5.567-15.877-8.136-.722.865-13.017-10.909-21.846-1.7-16.875,17.6,28.413,46.291,65.528,13.083,22.288-19.943,26.3-39.762,66.7-41.194,42.788-1.517,33.3-44.976,4.859-60.6" fill="#fff"/>
          <path id="Path_10372" data-name="Path 10372" d="M1801.06,2196.41c-25.3,19.329-22.194,22.911-45.029,24.477v6.827c2.428.9,4.415-.806,6.88-.261,24.662,5.451,53.217,15.644,69.834-3.684C1852.227,2201.109,1827.692,2176.061,1801.06,2196.41Z" fill="#fff"/>
          <path id="Path_10373" data-name="Path 10373" d="M1782.413,2235.07c-13.447,22.263-21.082,20.185-33.588,27.532a8.728,8.728,0,0,0-1.537.906c1.813.684,13.2,11.787,13.769,10.98a54.328,54.328,0,0,0,2.762-5.161c.925-1.66,2.291-5.473,4.145-6.344,23.113-10.856,31.183-8.649,39.946-32.584C1818.185,2202.337,1799.269,2207.162,1782.413,2235.07Z" fill="#fff"/>
          <path id="Path_10374" data-name="Path 10374" d="M1768.448,2262.257s14.465.946,31.31-16.392l2.048-2.97s-5.746.41-6.878,1.134-14.861,7.5-15.145,7.777-4.641,3.459-5.489,3.9-3.272.934-3.561,1.946A45.1,45.1,0,0,1,1768.448,2262.257Z" fill="#fff"/>
          <path id="Path_10375" data-name="Path 10375" d="M1763.076,2256.113s7.383-4.463,10.96-8.1-2.143-3.46-2.463-3.284a42.154,42.154,0,0,0-5.109,4.3c-.788,1.024-5.732,7.169-5.626,7.205S1763.076,2256.113,1763.076,2256.113Z" fill="#fff"/>
        </g>
      </g>
    </g>
    <g id="Group_4000" data-name="Group 4000">
      <path id="Path_10377" data-name="Path 10377" d="M1714.171,2282.905a1.043,1.043,0,0,1,.8.6,6.106,6.106,0,0,1,.239.6,2.2,2.2,0,0,1,.126.626.311.311,0,0,0,.153.291.579.579,0,0,0,.358.048.967.967,0,0,0,.55-.3,1.478,1.478,0,0,0-.126-1.959,3.428,3.428,0,0,0-2.306-.77,3.381,3.381,0,0,0-2.088.667,2.182,2.182,0,0,0-.925,1.835,1.818,1.818,0,0,0,.444,1.271,2.416,2.416,0,0,0,1.2.71,3.2,3.2,0,0,0-1.922.864,2.576,2.576,0,0,0-.81,1.951,2.235,2.235,0,0,0,.267,1.122,2.113,2.113,0,0,0,.705.76,3.357,3.357,0,0,0,1.8.552,4.428,4.428,0,0,0,3.32-1.568,1.965,1.965,0,0,1-1.323.388,5.747,5.747,0,0,0,1.332-.876l-.094-.087a.311.311,0,0,0-.415-.009,3.167,3.167,0,0,1-2.069.916,1.333,1.333,0,0,1-.989-.392,1.319,1.319,0,0,1-.377-.98,1.845,1.845,0,0,1,.725-1.513,2.613,2.613,0,0,1,1.69-.561l.113-.742a2.723,2.723,0,0,1-.982-.385,1.155,1.155,0,0,1-.415-.5,2.376,2.376,0,0,1-.141-.958,2.263,2.263,0,0,1,.284-1.125A.833.833,0,0,1,1714.171,2282.905Z" fill="#fff"/>
      <path id="Path_10378" data-name="Path 10378" d="M1719.2,2290.583c-.1,0-.147-.1-.146-.3a19.3,19.3,0,0,1,.729-3.906,22.473,22.473,0,0,0,.725-3.389c0-.116,0-.225-.012-.326a.629.629,0,0,0-.641-.569,8.307,8.307,0,0,0-2.039.208l-.042.2.133.19a2.583,2.583,0,0,1,.287.495,1.514,1.514,0,0,1,.13.411l.008,0a1.534,1.534,0,0,0,1.233.207,1.018,1.018,0,0,1-1.083.463,1.077,1.077,0,0,1-.211-.062q-.164,1.035-.687,3.059a20.277,20.277,0,0,0-.677,3.173,1.546,1.546,0,0,0,.3.974,1.051,1.051,0,0,0,.881.4,3.466,3.466,0,0,0,2.153-1.078l-.253-.5A4.547,4.547,0,0,1,1719.2,2290.583Z" fill="#fff"/>
      <path id="Path_10379" data-name="Path 10379" d="M1728.29,2282.976a4.243,4.243,0,0,0-2.833-.85c-.412,0-.877.017-1.4.057a2.9,2.9,0,0,1,.106.717,2.928,2.928,0,0,1-.579,1.8,3.647,3.647,0,0,0-.317-2.441,8.921,8.921,0,0,0-1.147.17l-.042.2.188.15a1.765,1.765,0,0,1,.353.476,1.524,1.524,0,0,1,.177.763,35.877,35.877,0,0,1-.747,3.677q-.745,3.24-.845,4.036a5.929,5.929,0,0,0,.707.031,5.2,5.2,0,0,0,1.224-.166,5.484,5.484,0,0,0,1.616.267,3.43,3.43,0,0,0,2.4-.934,5.789,5.789,0,0,0,1.561-2.336,8.53,8.53,0,0,0,.527-2.918A3.377,3.377,0,0,0,1728.29,2282.976Zm-1.523,4.839a9.879,9.879,0,0,1-.551,1.508,3.388,3.388,0,0,1-.823,1.121,1.592,1.592,0,0,1-1.076.443,2.017,2.017,0,0,1-.89-.167q.114-.753.759-3.5a35.741,35.741,0,0,0,.793-4.17,4.54,4.54,0,0,1,.8-.076,1.269,1.269,0,0,1,1.089.447,2.993,2.993,0,0,1,.313,1.668A10.9,10.9,0,0,1,1726.767,2287.815Z" fill="#fff"/>
      <path id="Path_10380" data-name="Path 10380" d="M1746.845,2282.681a1.717,1.717,0,0,0-.893-.428,1.93,1.93,0,0,1,.371.384,2.011,2.011,0,0,1,.262,1.818,2.352,2.352,0,0,0-.648-1.377,2.172,2.172,0,0,0-.335-.28c.046.179.124.368.149.5a6.549,6.549,0,0,1,.111.883,6.863,6.863,0,0,1-.773,3.53,8.461,8.461,0,0,1-1.262,1.874q-.659.711-1.076.708c-.28,0-.416-.226-.413-.671a26.656,26.656,0,0,1,.281-2.7,26.118,26.118,0,0,0,.285-3.094,6.773,6.773,0,0,0-.124-1.58,13.526,13.526,0,0,0-2.714.211l-.055.2.546,1.03a3.512,3.512,0,0,1,.166,1.243q-.006.8-.207,2.67t-.208,2.616a1.914,1.914,0,0,0,.4,1.25,1.262,1.262,0,0,0,1.015.513,3.544,3.544,0,0,0,2.426-1.434,12.917,12.917,0,0,0,2.208-3.4,8.671,8.671,0,0,0,.9-3.434A1.409,1.409,0,0,0,1746.845,2282.681Z" fill="#fff"/>
      <path id="Path_10381" data-name="Path 10381" d="M1753.658,2283.077a3.443,3.443,0,0,0-2.308-.77,3.39,3.39,0,0,0-2.088.668,2.179,2.179,0,0,0-.925,1.834,1.818,1.818,0,0,0,.444,1.271,2.415,2.415,0,0,0,1.2.71,3.213,3.213,0,0,0-1.922.864,2.58,2.58,0,0,0-.81,1.951,2.227,2.227,0,0,0,.269,1.122,2.092,2.092,0,0,0,.7.76,3.369,3.369,0,0,0,1.805.552,4.284,4.284,0,0,0,3.035-1.283.726.726,0,0,0-.011-1.056,4.683,4.683,0,0,1-1.153.832,2.547,2.547,0,0,1-1.122.272,1.344,1.344,0,0,1-.989-.393,1.321,1.321,0,0,1-.377-.979,1.848,1.848,0,0,1,.725-1.514,2.615,2.615,0,0,1,1.69-.561l.115-.742a2.725,2.725,0,0,1-.982-.384,1.137,1.137,0,0,1-.415-.5,2.371,2.371,0,0,1-.142-.958,2.265,2.265,0,0,1,.283-1.125.842.842,0,0,1,.761-.487.9.9,0,0,1,.929.646,2.979,2.979,0,0,1,.266,1.413c-.008.1.407.117.549.111a2.548,2.548,0,0,0-.288-2.058,2.188,2.188,0,0,1,.771,1.209,2.141,2.141,0,0,1,.053.614c.019-.018.037-.037.055-.057A1.48,1.48,0,0,0,1753.658,2283.077Z" fill="#fff"/>
      <path id="Path_10382" data-name="Path 10382" d="M1761.948,2290.612a2.622,2.622,0,0,1-.678.265c-.089,0-.132-.131-.13-.393a15.967,15.967,0,0,1,.595-3.227,16.159,16.159,0,0,0,.595-3.133,1.792,1.792,0,0,0-.422-1.284,1.484,1.484,0,0,0-1.13-.467,4.866,4.866,0,0,0-2.762,1.384,6.922,6.922,0,0,0,.059-.768,1.324,1.324,0,0,0-.172-.636c-.278,0-.537,0-.778.006a4.441,4.441,0,0,1-.7,2.81,4.953,4.953,0,0,0,.008-2.778,5.561,5.561,0,0,0-1.132.173l-.042.2.134.19a2.637,2.637,0,0,1,.286.495,1.271,1.271,0,0,1,.138.52,44.836,44.836,0,0,1-.855,4.427q-.682,2.956-.739,3.563l.255,0a4.45,4.45,0,0,0,1.864-.258,28.626,28.626,0,0,1,.923-4.607q.417-1.671.57-2.385a3.081,3.081,0,0,1,1.814-.784q.525,0,.521.68a19.231,19.231,0,0,1-.582,3.111,19.926,19.926,0,0,0-.581,3.053,1.425,1.425,0,0,0,.3.973,1.01,1.01,0,0,0,.8.363,2.489,2.489,0,0,0,1.1-.295,5.385,5.385,0,0,0,.7-.415.673.673,0,0,0,.211-.868Z" fill="#fff"/>
      <path id="Path_10383" data-name="Path 10383" d="M1770.22,2282.561l-1.268.017-4.505-.179a4.354,4.354,0,0,0-1.364.151,2.264,2.264,0,0,0,.37,1.191,3.485,3.485,0,0,1,1.7-.325l.541,0a1.175,1.175,0,0,1,.025.189,30.707,30.707,0,0,1-.8,4.23,31.485,31.485,0,0,0-.8,4.178h.095c.281,0,.537,0,.77-.013.249-.721.385-1.617.512-2.1a5.2,5.2,0,0,1,.1,2.052,2.539,2.539,0,0,0,.775-.194,16.714,16.714,0,0,1,.358-3q.336-1.672.7-3.14a16.99,16.99,0,0,0,.42-2.075q1.874.189,1.9.19a.481.481,0,0,0,.392-.133.721.721,0,0,0,.11-.445A4.044,4.044,0,0,0,1770.22,2282.561Z" fill="#fff"/>
      <path id="Path_10384" data-name="Path 10384" d="M1774.13,2286.931l-.079-.116-.009-.014c-.113-.162-.829-1.151-1.013-1.4-.026-.038-.042-.059-.042-.059a5,5,0,0,1-.346-.6,1.524,1.524,0,0,1-.192-.677.6.6,0,0,1,.308-.5,1.3,1.3,0,0,1,.757-.205,1.532,1.532,0,0,1,.775.2.546.546,0,0,1,.319.468,1.008,1.008,0,0,1-.152.526,2,2,0,0,1-.333.422c-.149.143-.32.255-.478.383-.02.016-.04.031-.058.048-.036.031,0,.062.019.092s.063.088.1.132c.121.162.249.319.37.481l.106-.084a5.062,5.062,0,0,0,.87-.938,1.983,1.983,0,0,0,.439-1.157,1.274,1.274,0,0,0-.566-1.017,2.571,2.571,0,0,0-1.608-.455,3.127,3.127,0,0,0-1.873.581,1.884,1.884,0,0,0-.842,1.612,3.289,3.289,0,0,0,.4,1.453,9.974,9.974,0,0,0,.887,1.478,12.317,12.317,0,0,1,.887,1.409,2.764,2.764,0,0,1,.4,1.265.966.966,0,0,1-.289.764.611.611,0,0,1-.772.076,3.864,3.864,0,0,1-.929-1.4c-.088-.221-.16-.446-.444-.337a1.393,1.393,0,0,0-.488.4c.019.031.037.062.055.093a6.084,6.084,0,0,0,.5.793c.094.115.189.228.291.336a1.353,1.353,0,0,0,.327.3,5.759,5.759,0,0,1-1.326-.856,2.6,2.6,0,0,1-.218-.226,2.454,2.454,0,0,0-.382.678,1.684,1.684,0,0,0,.676.82,2.458,2.458,0,0,0,1.554.49,3.805,3.805,0,0,0,2.394-.739,2.443,2.443,0,0,0,1-2.044,3.242,3.242,0,0,0-.382-1.325A9.886,9.886,0,0,0,1774.13,2286.931Z" fill="#fff"/>
      <path id="Path_10385" data-name="Path 10385" d="M1782.993,2290.516a14.155,14.155,0,0,1-1.884-.418,17.349,17.349,0,0,0,2.338-2.278,7.7,7.7,0,0,0,1.029-1.55,3.461,3.461,0,0,0,.408-1.5,2.118,2.118,0,0,0-.643-1.6,2.51,2.51,0,0,0-1.817-.648,3.722,3.722,0,0,0-3.355,2.311l.618.275a2.887,2.887,0,0,1,.85-.925,1.763,1.763,0,0,1,1.015-.33,1.213,1.213,0,0,1,1.239,1.3,5.128,5.128,0,0,1-.869,2.511,7.966,7.966,0,0,1-1.809,2.18,3.166,3.166,0,0,0-.714-.086,1.413,1.413,0,0,0-1.05.458c-.3.309-.454.545-.456.711a1.4,1.4,0,0,0,.38.732q.38.481.528.483a1.4,1.4,0,0,0,.577-.3,6.241,6.241,0,0,0,.888-.783,7.273,7.273,0,0,1,1.561.732,3.279,3.279,0,0,0,1.412.556,1.486,1.486,0,0,0,1.2-.55.847.847,0,0,0,.085-.269,2.134,2.134,0,0,1-.518.032,5.783,5.783,0,0,1-1.541-.336,4.387,4.387,0,0,0,1.609-.041,1.779,1.779,0,0,0,.47-.251h0a3.379,3.379,0,0,0-.131-.742A1.427,1.427,0,0,1,1782.993,2290.516Z" fill="#fff"/>
      <path id="Path_10386" data-name="Path 10386" d="M1791.936,2283.569a2.225,2.225,0,0,0-1.99-.992,3.623,3.623,0,0,0-3.1,1.712,7.707,7.707,0,0,0-1.232,4.478,4.448,4.448,0,0,0,.643,2.561,2.232,2.232,0,0,0,1.964.978,3.373,3.373,0,0,0,1.939-.566,4.156,4.156,0,0,0,1.367-1.516,8.664,8.664,0,0,0,1.042-4.149A4.452,4.452,0,0,0,1791.936,2283.569Zm-1.857,5.134a5.981,5.981,0,0,1-.668,1.918,1.276,1.276,0,0,1-1.065.782.548.548,0,0,1-.5-.347,3.34,3.34,0,0,1-.164-1.318,17.534,17.534,0,0,1,.486-3.99,5.27,5.27,0,0,1,.639-1.628q.4-.63.867-.627a.654.654,0,0,1,.645.389,4.029,4.029,0,0,1,.172,1.5A20.938,20.938,0,0,1,1790.079,2288.7Z" fill="#fff"/>
      <path id="Path_10387" data-name="Path 10387" d="M1803.758,2287.044a3.255,3.255,0,0,0,1.557-.871,2.066,2.066,0,0,0,.631-1.474,1.829,1.829,0,0,0-.658-1.429,2.557,2.557,0,0,0-1.749-.6,3.017,3.017,0,0,0-1.914.628,3.087,3.087,0,0,0-1.1,1.456l.593.259a2.016,2.016,0,0,1,1.79-1.3,1.038,1.038,0,0,1,.72.282,1.085,1.085,0,0,1,.3.845,1.575,1.575,0,0,1-.644,1.36,3.331,3.331,0,0,1-.616.365,3.157,3.157,0,0,1-.993.216l-.086.688.311-.011a2.26,2.26,0,0,1,1.428.367,1.671,1.671,0,0,1,.422,1.332,2.877,2.877,0,0,1-.505,1.677,1.41,1.41,0,0,1-1.172.7,1.732,1.732,0,0,1-1.346-.811,3.611,3.611,0,0,1-.413-.761c-.051-.126-.079-.268-.137-.388a.374.374,0,0,0-.118-.153,4.361,4.361,0,0,0,.419,1.84,2.381,2.381,0,0,1-.843-1.439c-.012.026-.022.054-.033.081a1.4,1.4,0,0,0,.353,1.588,3.243,3.243,0,0,0,2.4.907,3.662,3.662,0,0,0,2.435-.852,2.665,2.665,0,0,0,1.055-2.1,2.245,2.245,0,0,0-.577-1.609A2.634,2.634,0,0,0,1803.758,2287.044Z" fill="#fff"/>
      <path id="Path_10388" data-name="Path 10388" d="M1738.335,2285.228a.8.8,0,0,0,.177-.006.9.9,0,0,0,.552-.289,1.483,1.483,0,0,0-.126-1.959,3.439,3.439,0,0,0-2.306-.77,3.392,3.392,0,0,0-2.09.668,2.178,2.178,0,0,0-.923,1.834,1.808,1.808,0,0,0,.444,1.272,2.427,2.427,0,0,0,1.2.71,3.207,3.207,0,0,0-1.922.864,2.576,2.576,0,0,0-.81,1.951,2.236,2.236,0,0,0,.269,1.121,2.12,2.12,0,0,0,.7.761,3.367,3.367,0,0,0,1.8.551,4.292,4.292,0,0,0,3.035-1.281.729.729,0,0,0-.011-1.058,3.35,3.35,0,0,1-2.273,1.1,1.338,1.338,0,0,1-.989-.393,1.318,1.318,0,0,1-.377-.979,1.848,1.848,0,0,1,.725-1.514,2.61,2.61,0,0,1,1.69-.561l.113-.742a2.706,2.706,0,0,1-.982-.384,1.151,1.151,0,0,1-.415-.5,2.374,2.374,0,0,1-.142-.958,2.263,2.263,0,0,1,.285-1.124.842.842,0,0,1,.759-.488.9.9,0,0,1,.841.474,4.371,4.371,0,0,1,.287.673,1.779,1.779,0,0,1,.144.542,2.574,2.574,0,0,0,.524-1.579,2.108,2.108,0,0,1,.1,1.539A1.846,1.846,0,0,1,1738.335,2285.228Z" fill="#fff"/>
      <path id="Path_10389" data-name="Path 10389" d="M1797.4,2290.617a14.089,14.089,0,0,1-1.884-.419,17.323,17.323,0,0,0,2.337-2.277,7.681,7.681,0,0,0,1.03-1.551,3.487,3.487,0,0,0,.408-1.5,2.122,2.122,0,0,0-.644-1.6,2.5,2.5,0,0,0-1.817-.647,3.718,3.718,0,0,0-3.355,2.311l.619.274a2.876,2.876,0,0,1,.849-.925,1.782,1.782,0,0,1,1.015-.33,1.214,1.214,0,0,1,1.24,1.3,5.138,5.138,0,0,1-.869,2.511,7.984,7.984,0,0,1-1.809,2.18,3.173,3.173,0,0,0-.714-.087,1.417,1.417,0,0,0-1.05.459c-.3.308-.455.545-.456.711a.836.836,0,0,0,.152.411,1.9,1.9,0,0,1,1.3-.9,3.26,3.26,0,0,0-.873,1.452c.15.166.26.248.332.248a1.4,1.4,0,0,0,.577-.3,6.111,6.111,0,0,0,.887-.783,7.216,7.216,0,0,1,1.561.732,3.29,3.29,0,0,0,1.413.557,1.487,1.487,0,0,0,1.2-.55,1.1,1.1,0,0,0,.1-.444,3.343,3.343,0,0,0-.131-1.164A1.429,1.429,0,0,1,1797.4,2290.617Z" fill="#fff"/>
    </g>
  </g>
</svg>
